<svg width="87" height="70" viewBox="0 0 87 70" fill="none" xmlns="http://www.w3.org/2000/svg">
<path d="M41.9927 25.5263L40.4764 29.0015C39.8934 30.3374 38.0462 30.3374 37.4632 29.0015L35.9468 25.5263C34.5971 22.4337 32.1682 19.9716 29.1383 18.6262L24.9641 16.7725C23.637 16.1831 23.637 14.2516 24.9641 13.6622L29.0075 11.866C32.1153 10.4858 34.588 7.93268 35.9143 4.73453L37.4505 1.03074C38.0204 -0.34358 39.9183 -0.34358 40.4886 1.03074L42.0248 4.73453C43.3511 7.93268 45.8238 10.4858 48.9316 11.866L52.9754 13.6622C54.3026 14.2516 54.3026 16.1831 52.9754 16.7725L48.8012 18.6267C45.7708 19.9716 43.342 22.4337 41.9927 25.5263Z" fill="url(#paint0_radial_18_157)"/>
<path d="M56.085 36.4847L55.6586 37.4629C55.3463 38.179 54.3555 38.179 54.0436 37.4629L53.6172 36.4847C52.8573 34.741 51.4876 33.3526 49.7794 32.593L48.4654 32.0091C47.7547 31.6931 47.7547 30.6596 48.4654 30.3441L49.706 29.7928C51.4586 29.0137 52.8523 27.5738 53.5996 25.7707L54.0373 24.7138C54.3424 23.9773 55.3603 23.9773 55.6654 24.7138L56.1036 25.7707C56.8509 27.5738 58.2445 29.0137 59.9971 29.7928L61.2378 30.3441C61.9485 30.6601 61.9485 31.6936 61.2378 32.0091L59.9238 32.593C58.2142 33.3521 56.845 34.741 56.085 36.4847Z" fill="url(#paint1_radial_18_157)"/>
<path d="M0 68.7653V36H11.8513C14.4444 36 16.6713 36.8541 18.5319 38.5624C20.393 40.2403 21.3233 42.3607 21.3233 44.9231C21.3233 48.1567 19.8439 50.4296 16.8845 51.7418V51.9246C18.5622 52.4738 19.9046 53.4345 20.9112 54.8075C21.9177 56.15 22.4209 57.6903 22.4209 59.4295C22.4209 62.114 21.4448 64.341 19.4925 66.1106C17.601 67.8802 15.2675 68.7647 12.4916 68.7647H0V68.7653ZM4.21011 40.027V50.049H11.8519C13.3468 50.049 14.5975 49.5457 15.604 48.5391C16.6105 47.5021 17.1138 46.3275 17.1138 45.0154C17.1138 43.7342 16.6254 42.5745 15.6493 41.5375C14.6731 40.5309 13.4683 40.0276 12.0342 40.0276H4.21011V40.027ZM4.21011 53.9843V64.7383H12.6756C14.2008 64.7383 15.4974 64.2046 16.5653 63.1367C17.6022 62.0687 18.1209 60.803 18.1209 59.3384C18.1209 57.9047 17.5873 56.6539 16.5194 55.5859C15.4515 54.518 14.1097 53.9843 12.4927 53.9843H4.21011ZM29.5023 61.9014C29.5023 62.9997 29.9597 63.9152 30.8751 64.6472C31.8209 65.3792 32.9191 65.7455 34.1698 65.7455C35.9393 65.7455 37.5104 65.0897 38.8826 63.7776C40.2858 62.4654 40.9873 60.9251 40.9873 59.1555C39.6753 58.1179 37.8451 57.5998 35.4962 57.5998C33.7881 57.5998 32.3539 58.0113 31.1949 58.8351C30.0669 59.6588 29.5023 60.6809 29.5023 61.9014ZM34.9476 45.6098C38.0589 45.6098 40.5151 46.4491 42.3149 48.1269C44.1147 49.7744 45.0146 52.0473 45.0146 54.9456V68.7659H40.9879V65.6544H40.8045C39.0654 68.2168 36.7475 69.4986 33.8494 69.4986C31.3784 69.4986 29.304 68.7665 27.6263 67.3019C25.9789 65.8372 25.1552 64.0069 25.1552 61.8102C25.1552 59.4915 26.0248 57.6456 27.7632 56.2733C29.5327 54.9004 31.8816 54.2142 34.8101 54.2142C37.3115 54.2142 39.371 54.6717 40.9873 55.5871V54.6264C40.9873 53.1618 40.4079 51.9264 39.2483 50.9198C38.0893 49.8828 36.7314 49.364 35.1757 49.364C32.8268 49.364 30.9662 50.3558 29.5934 52.3386L25.8872 50.0049C27.9318 47.0745 30.9513 45.6098 34.9476 45.6098ZM53.972 68.7653H49.7625V46.3418H53.7892V50.0026H53.972C54.3991 48.8125 55.2686 47.8059 56.58 46.9821C57.9225 46.128 59.2339 45.7009 60.515 45.7009C61.7353 45.7009 62.7728 45.8838 63.6263 46.2501L62.3452 50.323C61.8264 50.1092 61.0028 50.0026 59.8742 50.0026C58.2881 50.0026 56.8999 50.6434 55.7099 51.9246C54.5509 53.2058 53.9708 54.7008 53.9708 56.4091V68.7653H53.972ZM75.0672 65.6538C77.1416 65.6538 78.8348 64.9063 80.1463 63.4113C81.5191 61.9162 82.2052 59.9638 82.2052 57.5539C82.2052 55.2047 81.5191 53.2672 80.1463 51.7424C78.8039 50.217 77.1112 49.454 75.0672 49.454C73.0536 49.454 71.361 50.217 69.9882 51.7424C68.6154 53.2678 67.9293 55.2053 67.9293 57.5539C67.9293 59.9334 68.6154 61.871 69.9882 63.3654C71.3604 64.8908 73.0536 65.6538 75.0672 65.6538ZM74.3805 69.4974C71.4521 69.4974 68.9352 68.3383 66.8305 66.0195C64.7561 63.6704 63.7192 60.8483 63.7192 57.5533C63.7192 54.2583 64.7567 51.4362 66.8305 49.0871C68.9352 46.7683 71.4521 45.6092 74.3805 45.6092C76.0279 45.6092 77.5228 45.96 78.8646 46.6617C80.2374 47.3633 81.2898 48.2937 82.0217 49.4534H82.2046L82.0217 46.3418V36H86.2312V68.7653H82.2046V65.6538H82.0217C81.2898 66.8129 80.2374 67.7438 78.8646 68.4455C77.5228 69.1465 76.0279 69.4974 74.3805 69.4974Z" fill="#98C0EF"/>
<defs>
<radialGradient id="paint0_radial_18_157" cx="0" cy="0" r="1" gradientUnits="userSpaceOnUse" gradientTransform="translate(47.4586 16.6612) rotate(78.8647) scale(23.4371 23.4352)">
<stop stop-color="#1BA1E3"/>
<stop offset="0.3002" stop-color="#5489D6"/>
<stop offset="0.5455" stop-color="#9B72CB"/>
<stop offset="0.8254" stop-color="#D96570"/>
<stop offset="1" stop-color="#F49C46"/>
</radialGradient>
<radialGradient id="paint1_radial_18_157" cx="0" cy="0" r="1" gradientUnits="userSpaceOnUse" gradientTransform="translate(47.4586 16.6612) rotate(78.8647) scale(23.4371 23.4352)">
<stop stop-color="#1BA1E3"/>
<stop offset="0.3002" stop-color="#5489D6"/>
<stop offset="0.5455" stop-color="#9B72CB"/>
<stop offset="0.8254" stop-color="#D96570"/>
<stop offset="1" stop-color="#F49C46"/>
</radialGradient>
</defs>
</svg>
