<svg width="76" height="61" viewBox="0 0 76 61" fill="none" xmlns="http://www.w3.org/2000/svg">
<path d="M37.0749 23.9149L35.7006 27.0645C35.1723 28.2752 33.4981 28.2752 32.9697 27.0645L31.5955 23.9149C30.3722 21.112 28.1709 18.8806 25.4248 17.6613L21.6417 15.9812C20.4389 15.4471 20.4389 13.6965 21.6417 13.1623L25.3063 11.5344C28.1229 10.2835 30.364 7.96961 31.5659 5.0711L32.9583 1.71432C33.4747 0.468761 35.1948 0.468761 35.7117 1.71432L37.104 5.0711C38.306 7.96961 40.5471 10.2835 43.3637 11.5344L47.0287 13.1623C48.2315 13.6965 48.2315 15.4471 47.0287 15.9812L43.2455 17.6617C40.4991 18.8806 38.2978 21.112 37.0749 23.9149Z" fill="url(#paint0_radial_18_157)"/>
<path d="M49.8469 33.8466L49.4605 34.7331C49.1775 35.3822 48.2795 35.3822 47.9968 34.7331L47.6104 33.8466C46.9216 32.2662 45.6803 31.008 44.1321 30.3195L42.9412 29.7903C42.2971 29.5039 42.2971 28.5673 42.9412 28.2813L44.0656 27.7816C45.654 27.0756 46.9171 25.7705 47.5944 24.1364L47.9911 23.1785C48.2676 22.511 49.1902 22.511 49.4667 23.1785L49.8638 24.1364C50.5411 25.7705 51.8041 27.0756 53.3925 27.7816L54.517 28.2813C55.161 28.5677 55.161 29.5043 54.517 29.7903L53.3261 30.3195C51.7767 31.0075 50.5357 32.2662 49.8469 33.8466Z" fill="url(#paint1_radial_18_157)"/>
<path d="M0.231323 59.822V31.0321H10.6447C12.9232 31.0321 14.8799 31.7826 16.5147 33.2836C18.15 34.7579 18.9675 36.621 18.9675 38.8725C18.9675 41.7138 17.6676 43.711 15.0672 44.8639V45.0246C16.5414 45.5071 17.7209 46.3513 18.6053 47.5576C19.4897 48.7373 19.9319 50.0907 19.9319 51.6189C19.9319 53.9777 19.0742 55.9345 17.3588 57.4894C15.6968 59.0443 13.6464 59.8215 11.2073 59.8215H0.231323V59.822ZM3.93062 34.5705V43.3765H10.6452C11.9587 43.3765 13.0577 42.9343 13.9421 42.0498C14.8265 41.1387 15.2687 40.1066 15.2687 38.9536C15.2687 37.8279 14.8396 36.8089 13.9819 35.8978C13.1242 35.0133 12.0655 34.571 10.8054 34.571H3.93062V34.5705ZM3.93062 46.8344V56.2836H11.369C12.7092 56.2836 13.8484 55.8147 14.7867 54.8763C15.6978 53.9379 16.1536 52.8258 16.1536 51.5388C16.1536 50.2791 15.6847 49.1801 14.7464 48.2417C13.8081 47.3033 12.6291 46.8344 11.2083 46.8344H3.93062ZM26.1541 53.7908C26.1541 54.7559 26.556 55.5603 27.3603 56.2035C28.1914 56.8467 29.1563 57.1686 30.2553 57.1686C31.8101 57.1686 33.1906 56.5924 34.3963 55.4394C35.6292 54.2865 36.2456 52.9331 36.2456 51.3782C35.0928 50.4665 33.4847 50.0111 31.4207 50.0111C29.9199 50.0111 28.6597 50.3728 27.6414 51.0966C26.6502 51.8204 26.1541 52.7185 26.1541 53.7908ZM30.9387 39.476C33.6725 39.476 35.8307 40.2134 37.4121 41.6877C38.9936 43.1353 39.7843 45.1324 39.7843 47.6791V59.8225H36.2462V57.0885H36.085C34.5569 59.34 32.5202 60.4663 29.9738 60.4663C27.8025 60.4663 25.9798 59.8231 24.5057 58.5361C23.0582 57.2492 22.3344 55.6409 22.3344 53.7108C22.3344 51.6733 23.0985 50.0514 24.626 48.8456C26.1808 47.6393 28.2447 47.0364 30.8179 47.0364C33.0158 47.0364 34.8254 47.4383 36.2456 48.2427V47.3985C36.2456 46.1116 35.7365 45.0262 34.7176 44.1417C33.6992 43.2305 32.5061 42.7747 31.1392 42.7747C29.0752 42.7747 27.4404 43.6461 26.2342 45.3883L22.9776 43.3378C24.7741 40.7629 27.4273 39.476 30.9387 39.476ZM47.6549 59.822H43.9561V40.1192H47.4942V43.3357H47.6549C48.0301 42.2901 48.7941 41.4056 49.9465 40.6818C51.126 39.9313 52.2783 39.556 53.404 39.556C54.4763 39.556 55.3879 39.7167 56.1378 40.0386L55.0121 43.6173C54.5563 43.4294 53.8326 43.3357 52.8409 43.3357C51.4473 43.3357 50.2275 43.8989 49.1819 45.0246C48.1636 46.1503 47.6538 47.464 47.6538 48.965V59.822H47.6549ZM66.1906 57.088C68.0133 57.088 69.5011 56.4312 70.6534 55.1175C71.8596 53.8039 72.4625 52.0884 72.4625 49.9708C72.4625 47.9067 71.8596 46.2042 70.6534 44.8644C69.4739 43.5241 67.9866 42.8537 66.1906 42.8537C64.4213 42.8537 62.934 43.5241 61.7278 44.8644C60.5216 46.2048 59.9187 47.9072 59.9187 49.9708C59.9187 52.0617 60.5216 53.7641 61.7278 55.0773C62.9335 56.4176 64.4213 57.088 66.1906 57.088ZM65.5872 60.4652C63.0141 60.4652 60.8026 59.4468 58.9532 57.4093C57.1305 55.3452 56.2194 52.8655 56.2194 49.9703C56.2194 47.0751 57.131 44.5954 58.9532 42.5313C60.8026 40.4939 63.0141 39.4754 65.5872 39.4754C67.0347 39.4754 68.3482 39.7837 69.5272 40.4002C70.7335 41.0167 71.6582 41.8342 72.3013 42.8532H72.462L72.3013 40.1192V31.0321H76.0001V59.822H72.462V57.088H72.3013C71.6582 58.1064 70.7335 58.9244 69.5272 59.541C68.3482 60.157 67.0347 60.4652 65.5872 60.4652Z" fill="#98C0EF"/>
<defs>
<radialGradient id="paint0_radial_18_157" cx="0" cy="0" r="1" gradientUnits="userSpaceOnUse" gradientTransform="translate(42.0287 15.8804) rotate(78.8647) scale(21.2413 21.2396)">
<stop stop-color="#1BA1E3"/>
<stop offset="0.3002" stop-color="#5489D6"/>
<stop offset="0.5455" stop-color="#9B72CB"/>
<stop offset="0.8254" stop-color="#D96570"/>
<stop offset="1" stop-color="#F49C46"/>
</radialGradient>
<radialGradient id="paint1_radial_18_157" cx="0" cy="0" r="1" gradientUnits="userSpaceOnUse" gradientTransform="translate(42.0287 15.8804) rotate(78.8647) scale(21.2413 21.2396)">
<stop stop-color="#1BA1E3"/>
<stop offset="0.3002" stop-color="#5489D6"/>
<stop offset="0.5455" stop-color="#9B72CB"/>
<stop offset="0.8254" stop-color="#D96570"/>
<stop offset="1" stop-color="#F49C46"/>
</radialGradient>
</defs>
</svg>
