<svg width="31" height="31" viewBox="0 0 31 31" fill="none" xmlns="http://www.w3.org/2000/svg">
<path fill-rule="evenodd" clip-rule="evenodd" d="M10.0609 6.97952C10.7589 6.96656 11.456 7.03812 12.1368 7.19265C12.71 7.3178 13.2543 7.55068 13.7406 7.87892C14.1897 8.20532 14.5451 8.64413 14.7711 9.1513C15.0307 9.77495 15.156 10.4463 15.1387 11.1217C15.1682 11.8632 14.9788 12.597 14.5942 13.2316C14.1895 13.831 13.6302 14.3097 12.9755 14.617C13.8639 14.8565 14.6378 15.4052 15.1579 16.1643C15.6572 16.9686 15.9081 17.9024 15.8793 18.8486C15.8958 19.6031 15.7398 20.3514 15.4232 21.0364C15.1306 21.634 14.7022 22.1548 14.1722 22.5571C13.6265 22.955 13.0125 23.2493 12.3606 23.4256C11.6845 23.6126 10.9861 23.7065 10.2847 23.7048H2.58331V6.97952H10.0609ZM9.61655 13.7442C10.165 13.7668 10.7049 13.6026 11.1479 13.2785C11.36 13.0897 11.5251 12.8538 11.6298 12.5897C11.7345 12.3257 11.7761 12.0408 11.751 11.7579C11.7652 11.4274 11.6994 11.0984 11.5592 10.7988C11.4403 10.5602 11.2553 10.3609 11.0264 10.2244C10.7945 10.0742 10.534 9.97365 10.2613 9.92922C9.96537 9.8719 9.66427 9.84582 9.36293 9.85142H6.07223V13.7591H9.61655V13.7442ZM9.80837 20.8648C10.14 20.8693 10.471 20.8335 10.7941 20.7583C11.0893 20.6931 11.3693 20.5719 11.6189 20.4013C11.8634 20.2308 12.061 20.0013 12.1933 19.7342C12.3467 19.3936 12.4172 19.0214 12.3989 18.6483C12.4322 18.3083 12.3872 17.9651 12.2673 17.6452C12.1474 17.3253 11.9559 17.0371 11.7073 16.8026C11.1806 16.4146 10.5351 16.2225 9.8819 16.2591H6.07223V20.8648H9.80837Z" fill="#EFEEEC"/>
<path fill-rule="evenodd" clip-rule="evenodd" d="M20.8484 20.803C21.1223 21.0568 21.4449 21.2523 21.7966 21.3776C22.1483 21.5029 22.5218 21.5554 22.8945 21.5319C23.4852 21.5469 24.0645 21.3671 24.543 21.0204C24.9323 20.7673 25.2271 20.3927 25.3817 19.9548H28.1641C27.8676 21.2014 27.1436 22.3047 26.118 23.0728C25.1341 23.7259 23.9714 24.0566 22.7911 24.0191C21.9487 24.0302 21.1127 23.8718 20.3327 23.5535C19.6271 23.2592 18.9943 22.8144 18.4784 22.2502C17.9646 21.6589 17.5698 20.974 17.3158 20.2329C17.0308 19.4046 16.8912 18.5332 16.9034 17.6573C16.8982 16.796 17.0425 15.9404 17.3297 15.1285C17.7156 13.9862 18.4534 12.9956 19.4372 12.2987C20.4211 11.6018 21.6004 11.2345 22.806 11.2495C23.6961 11.2309 24.5762 11.4392 25.3636 11.8548C26.0752 12.2451 26.6892 12.7916 27.1592 13.4533C27.64 14.1476 27.9846 14.9269 28.1747 15.7498C28.3833 16.6333 28.4576 17.5433 28.3953 18.449H20.1078C20.0407 19.3 20.3061 20.1438 20.8484 20.803ZM24.4844 14.4422C24.2525 14.2102 23.9736 14.0307 23.6664 13.9156C23.3592 13.8005 23.031 13.7526 22.7037 13.7751C22.2696 13.7586 21.8386 13.8548 21.4527 14.0543C21.1467 14.2227 20.8767 14.4494 20.6577 14.7214C20.4636 14.9765 20.319 15.2656 20.2314 15.5739C20.1525 15.831 20.1031 16.0963 20.0844 16.3646H25.2176C25.1728 15.6652 24.9181 14.9955 24.4865 14.4433L24.4844 14.4422Z" fill="#EFEEEC"/>
<path d="M19.4226 8.09629H25.8548V9.74057H19.4226V8.09629Z" fill="#EFEEEC"/>
</svg>
