<svg width="40" height="40" viewBox="0 0 40 40" fill="none" xmlns="http://www.w3.org/2000/svg">
<path d="M22.5781 6.81252C22.3828 6.92189 22.1328 7.14064 22.0156 7.31252C21.8516 7.54689 21.0469 10.2735 18.3984 19.5313C16.5312 26.086 15 31.5703 15 31.7266C15 32.1328 15.3594 32.7891 15.7109 33.0235C16.1328 33.2969 16.5156 33.375 17.0234 33.2735C17.3672 33.2031 17.5156 33.1172 17.8047 32.8203L18.1719 32.461L21.5859 20.5078C23.5547 13.6016 25 8.42189 25 8.23439C25 7.78127 24.6562 7.14845 24.2734 6.89064C23.8203 6.58595 23.0625 6.5547 22.5781 6.81252Z" fill="#369EFF"/>
<path d="M9.45312 11.7421C9.24219 11.8046 8.3125 12.6796 5.60156 15.3828C3.51562 17.4609 1.95312 19.0781 1.85156 19.2578C1.63281 19.6796 1.63281 20.3203 1.85156 20.7421C1.95312 20.9218 3.51562 22.539 5.60156 24.6171C8.65625 27.6562 9.22656 28.1874 9.5 28.2656C10.1484 28.4531 10.6641 28.3281 11.1484 27.8593C11.5937 27.4453 11.7578 26.914 11.6328 26.3046C11.5469 25.9062 11.4844 25.8359 8.60937 22.9531L5.67187 19.9999L8.60937 17.0468C11.4609 14.1874 11.5469 14.0937 11.625 13.7109C11.9062 12.3906 10.75 11.3515 9.45312 11.7421Z" fill="#369EFF"/>
<path d="M29.4297 11.7499C28.9062 11.9374 28.5703 12.3046 28.3984 12.8515C28.2969 13.1718 28.2969 13.3203 28.3672 13.6718L28.4531 14.1015L31.3906 17.0468L34.3281 19.9999L31.3906 22.9531L28.4531 25.8984L28.3672 26.3281C28.1094 27.5781 29.2187 28.6093 30.4531 28.2812C30.789 28.1874 31.1015 27.9062 34.3984 24.6171C36.539 22.4921 38.0469 20.9296 38.1406 20.7421C38.25 20.539 38.3047 20.2812 38.3047 19.9999C38.3047 19.7187 38.25 19.4609 38.1406 19.2578C38.0469 19.0703 36.539 17.5156 34.3984 15.3828C31.3437 12.3437 30.7734 11.8124 30.5 11.7343C30.0859 11.6171 29.8047 11.6171 29.4297 11.7499Z" fill="#369EFF"/>
</svg>
