<svg width="21" height="21" viewBox="0 0 21 21" fill="none" xmlns="http://www.w3.org/2000/svg">
<path d="M7.875 13.125V15.75C7.875 17.1997 6.69975 18.375 5.25 18.375C3.80025 18.375 2.625 17.1997 2.625 15.75C2.625 14.3003 3.80025 13.125 5.25 13.125H7.875ZM7.875 13.125H13.125M7.875 13.125V7.875M13.125 13.125V15.75C13.125 17.1997 14.3003 18.375 15.75 18.375C17.1997 18.375 18.375 17.1997 18.375 15.75C18.375 14.3003 17.1997 13.125 15.75 13.125H13.125ZM13.125 13.125V7.875M13.125 7.875H7.875M13.125 7.875V5.25C13.125 3.80025 14.3003 2.625 15.75 2.625C17.1997 2.625 18.375 3.80025 18.375 5.25C18.375 6.69975 17.1997 7.875 15.75 7.875H13.125ZM7.875 7.875V5.25C7.875 3.80025 6.69975 2.625 5.25 2.625C3.80025 2.625 2.625 3.80025 2.625 5.25C2.625 6.69975 3.80025 7.875 5.25 7.875H7.875Z" stroke="white" stroke-width="2" stroke-linecap="round" stroke-linejoin="round"/>
</svg>
