<svg width="526" height="550" viewBox="0 0 526 550" fill="none" xmlns="http://www.w3.org/2000/svg">
<g filter="url(#filter0_f_136_45)">
<path fill-rule="evenodd" clip-rule="evenodd" d="M365.463 89.0914L158.357 91.4434L59.3604 262.911L154.223 454.767L367.092 455.715L472.66 272.867L365.463 89.0914ZM411.95 365.059L463.315 276.09L381.214 275.725L329.211 365.795L411.95 365.059ZM408.189 371.573L363.36 449.218L281.258 448.852L325.45 372.31L408.189 371.573ZM317.929 372.377L273.795 448.819L161.838 448.321L205.104 373.381L317.929 372.377ZM199.509 370.111L156.461 444.673L106.406 343.438L146.843 273.398L199.509 370.111ZM150.641 266.82L203.306 363.534L256.198 271.923L202.943 177.216L202.368 177.226L150.641 266.82ZM143.211 266.728L102.954 336.456L66.7068 263.148L105.074 196.693L143.211 266.728ZM108.872 190.116L147.009 260.15L198.591 170.808L199.333 170.795L160.203 101.207L108.872 190.116ZM208.865 366.867L321.69 365.862L373.75 275.691L261.793 275.193L208.865 366.867ZM372.759 269.207L261.827 268.713L210.309 177.092L317.972 175.281L372.759 269.207ZM314.228 168.863L206.698 170.672L165.745 97.8404L272.096 96.6326L314.228 168.863ZM279.549 96.548L321.658 168.738L403.614 167.359L361.766 95.6143L279.549 96.548ZM407.358 173.777L325.401 175.156L380.281 269.24L463.257 269.609L407.358 173.777Z" fill="url(#paint0_linear_136_45)"/>
</g>
<path fill-rule="evenodd" clip-rule="evenodd" d="M365.463 91.0914L158.357 93.4434L59.3604 264.911L154.223 456.767L367.092 457.715L472.66 274.867L365.463 91.0914ZM411.95 367.059L463.315 278.09L381.214 277.725L329.211 367.795L411.95 367.059ZM408.189 373.573L363.36 451.218L281.258 450.852L325.45 374.31L408.189 373.573ZM317.929 374.377L273.795 450.819L161.838 450.321L205.104 375.381L317.929 374.377ZM199.509 372.111L156.461 446.673L106.406 345.438L146.843 275.398L199.509 372.111ZM150.641 268.82L203.306 365.534L256.198 273.923L202.943 179.216L202.368 179.226L150.641 268.82ZM143.211 268.728L102.954 338.456L66.7068 265.148L105.074 198.693L143.211 268.728ZM108.872 192.116L147.009 262.15L198.591 172.808L199.333 172.795L160.203 103.207L108.872 192.116ZM208.865 368.867L321.69 367.862L373.75 277.691L261.793 277.193L208.865 368.867ZM372.759 271.207L261.827 270.713L210.309 179.092L317.972 177.281L372.759 271.207ZM314.228 170.863L206.698 172.672L165.745 99.8404L272.096 98.6326L314.228 170.863ZM279.549 98.548L321.658 170.738L403.614 169.359L361.766 97.6143L279.549 98.548ZM407.358 175.777L325.401 177.156L380.281 271.24L463.257 271.609L407.358 175.777Z" fill="url(#paint1_linear_136_45)"/>
<defs>
<filter id="filter0_f_136_45" x="49.3604" y="79.0914" width="433.299" height="386.624" filterUnits="userSpaceOnUse" color-interpolation-filters="sRGB">
<feFlood flood-opacity="0" result="BackgroundImageFix"/>
<feBlend mode="normal" in="SourceGraphic" in2="BackgroundImageFix" result="shape"/>
<feGaussianBlur stdDeviation="5" result="effect1_foregroundBlur_136_45"/>
</filter>
<linearGradient id="paint0_linear_136_45" x1="152.812" y1="90.7263" x2="363.426" y2="466.592" gradientUnits="userSpaceOnUse">
<stop stop-color="#98C0EF"/>
<stop offset="1" stop-color="#369EFF"/>
</linearGradient>
<linearGradient id="paint1_linear_136_45" x1="152.812" y1="92.7263" x2="363.426" y2="468.592" gradientUnits="userSpaceOnUse">
<stop stop-color="#98C0EF"/>
<stop offset="1" stop-color="#369EFF"/>
</linearGradient>
</defs>
</svg>
