<svg width="20" height="20" viewBox="0 0 20 20" fill="none" xmlns="http://www.w3.org/2000/svg">
<path d="M9.36229 1.97831C9.05601 2.10517 8.78143 2.37975 8.23233 2.92885C7.68335 3.47783 7.40866 3.75252 7.28181 4.05877C7.11265 4.46715 7.11265 4.92605 7.28181 5.33443C7.40868 5.64071 7.68324 5.91527 8.23235 6.46439C8.78116 7.01319 9.05607 7.28811 9.36227 7.41494C9.77065 7.58409 10.2296 7.58409 10.6379 7.41494C10.9442 7.28807 11.2188 7.01351 11.7679 6.46439C12.317 5.91527 12.5908 5.64071 12.7176 5.33443C12.8868 4.92605 12.8868 4.46715 12.7176 4.05877C12.5908 3.75248 12.317 3.47797 11.7679 2.92885C11.2188 2.37974 10.9442 2.10517 10.6379 1.97831C10.2296 1.80915 9.77067 1.80915 9.36229 1.97831Z" stroke="#818180" stroke-linecap="round" stroke-linejoin="round"/>
<path d="M4.05874 7.28145C3.75246 7.40832 3.4779 7.68288 2.92878 8.23199C2.37982 8.78096 2.10511 9.05567 1.97826 9.36191C1.80911 9.77029 1.80911 10.2292 1.97826 10.6376C2.10513 10.9439 2.37969 11.2184 2.92881 11.7675C3.47761 12.3163 3.75252 12.5912 4.05872 12.7181C4.4671 12.8872 4.926 12.8872 5.33438 12.7181C5.64067 12.5912 5.91523 12.3167 6.46434 11.7675C7.01346 11.2184 7.28721 10.9439 7.41408 10.6376C7.58324 10.2292 7.58324 9.77029 7.41408 9.36191C7.28721 9.05562 7.01346 8.78111 6.46434 8.23199C5.91523 7.68288 5.64067 7.40832 5.33438 7.28145C4.926 7.11229 4.46712 7.11229 4.05874 7.28145Z" stroke="#818180" stroke-linecap="round" stroke-linejoin="round"/>
<path d="M13.5359 8.23199C12.9869 8.78097 12.7122 9.05566 12.5854 9.36191C12.4162 9.77029 12.4162 10.2292 12.5854 10.6376C12.7122 10.9439 12.9868 11.2184 13.5359 11.7675C14.0847 12.3163 14.3596 12.5912 14.6658 12.7181C15.0742 12.8872 15.5331 12.8872 15.9415 12.7181C16.2478 12.5912 16.5223 12.3167 17.0714 11.7675C17.6205 11.2184 17.8943 10.9439 18.0212 10.6376C18.1903 10.2292 18.1903 9.77029 18.0212 9.36191C17.8943 9.05562 17.6205 8.7811 17.0714 8.23199C16.5223 7.68288 16.2478 7.40832 15.9415 7.28145C15.5331 7.11229 15.0742 7.11229 14.6658 7.28145C14.3596 7.40831 14.085 7.68288 13.5359 8.23199Z" stroke="#818180" stroke-linecap="round" stroke-linejoin="round"/>
<path d="M9.36229 12.585C9.05601 12.7119 8.78145 12.9864 8.23233 13.5355C7.68336 14.0845 7.40866 14.3592 7.28181 14.6655C7.11265 15.0738 7.11265 15.5327 7.28181 15.9411C7.40868 16.2474 7.68324 16.522 8.23235 17.0711C8.78116 17.6199 9.05607 17.8948 9.36227 18.0216C9.77065 18.1908 10.2296 18.1908 10.6379 18.0216C10.9442 17.8948 11.2188 17.6202 11.7679 17.0711C12.317 16.522 12.5908 16.2474 12.7176 15.9411C12.8868 15.5327 12.8868 15.0738 12.7176 14.6655C12.5908 14.3592 12.317 14.0847 11.7679 13.5355C11.2188 12.9864 10.9442 12.7119 10.6379 12.585C10.2296 12.4158 9.77067 12.4158 9.36229 12.585Z" stroke="#818180" stroke-linecap="round" stroke-linejoin="round"/>
</svg>
