<svg width="165" height="90" viewBox="0 0 165 90" fill="none" xmlns="http://www.w3.org/2000/svg">
<g clip-path="url(#clip0_18_178)">
<path d="M110.402 10.6448C109.798 10.3503 109.537 10.9132 109.186 11.2005C109.064 11.2932 108.962 11.4143 108.86 11.5235C107.977 12.4664 106.946 13.0839 105.599 13.0103C103.63 12.901 101.949 13.5185 100.462 15.0243C100.146 13.167 99.0965 12.0603 97.5005 11.3478C96.6645 10.9773 95.819 10.6092 95.2324 9.80403C94.8239 9.23166 94.7123 8.59278 94.508 7.96578C94.3774 7.58578 94.2468 7.19866 93.8121 7.13453C93.3371 7.06091 93.1519 7.45753 92.9666 7.79003C92.2233 9.14853 91.9359 10.6448 91.9644 12.16C92.0285 15.5705 93.4678 18.2875 96.3296 20.2184C96.655 20.4393 96.7381 20.6625 96.636 20.9855C96.4413 21.6505 96.2085 22.2965 96.0043 22.9639C95.8736 23.389 95.6789 23.4793 95.2229 23.2964C93.6821 22.6342 92.2825 21.6829 91.0999 20.4939C89.0645 18.5274 87.2263 16.3567 84.932 14.6562C84.4004 14.2634 83.8546 13.8902 83.2956 13.5375C80.9563 11.2647 83.6044 9.39791 84.2171 9.17703C84.8584 8.94428 84.438 8.15103 82.367 8.16053C80.296 8.17003 78.4008 8.86116 75.9854 9.78503C75.6265 9.92257 75.2572 10.0314 74.881 10.1104C72.6239 9.68512 70.3154 9.60345 68.0339 9.86816C63.557 10.3669 59.9826 12.4854 57.3535 16.0978C54.1948 20.4393 53.4514 25.3745 54.361 30.5188C55.3181 35.9433 58.0874 40.4344 62.341 43.9447C66.7538 47.5855 71.8339 49.3692 77.6313 49.0272C81.151 48.8253 85.0721 48.3527 89.492 44.6097C90.6083 45.1654 91.7768 45.3863 93.7195 45.5525C95.2158 45.6927 96.655 45.4813 97.7689 45.2485C99.5145 44.878 99.3934 43.2607 98.764 42.9662C93.6459 40.5817 94.7693 41.553 93.7456 40.7669C96.3486 37.6889 100.267 34.4922 101.802 24.1348C101.92 23.3107 101.818 22.7929 101.802 22.1279C101.792 21.7242 101.885 21.565 102.348 21.5199C103.633 21.3866 104.879 21.0034 106.017 20.3918C109.333 18.5797 110.672 15.6062 110.988 12.0389C111.036 11.4927 110.979 10.9322 110.402 10.6448ZM81.5049 42.75C76.5435 38.8503 74.1376 37.5654 73.1449 37.62C72.2139 37.677 72.3825 38.7387 72.5868 39.4322C72.8005 40.1162 73.0784 40.5864 73.4679 41.1873C73.7386 41.5839 73.9239 42.1753 73.1995 42.6194C71.6011 43.6074 68.8248 42.2869 68.6941 42.2228C65.4618 40.318 62.7566 37.8053 60.8543 34.3687C59.016 31.0603 57.9473 27.512 57.7715 23.7239C57.724 22.8072 57.9924 22.4842 58.9044 22.3179C60.1016 22.0888 61.3284 22.0575 62.5358 22.2253C67.5993 22.9663 71.9075 25.2297 75.5223 28.8135C77.5838 30.856 79.1441 33.2952 80.752 35.6797C82.462 38.2114 84.3003 40.6244 86.642 42.6004C87.4685 43.2939 88.1264 43.8212 88.7581 44.2083C86.8534 44.422 83.6756 44.4695 81.5049 42.75ZM83.8799 27.455C83.8795 27.3371 83.9078 27.2207 83.9624 27.1162C84.017 27.0116 84.0962 26.9219 84.1932 26.8547C84.2903 26.7876 84.4022 26.7452 84.5193 26.731C84.6364 26.7168 84.7553 26.7314 84.8655 26.7734C85.006 26.8238 85.1273 26.9168 85.2124 27.0394C85.2976 27.162 85.3424 27.3081 85.3405 27.4574C85.3408 27.5538 85.322 27.6494 85.285 27.7385C85.248 27.8275 85.1937 27.9084 85.1251 27.9762C85.0566 28.0441 84.9753 28.0976 84.8858 28.1337C84.7964 28.1698 84.7007 28.1878 84.6043 28.1865C84.5085 28.1869 84.4137 28.1681 84.3254 28.1313C84.237 28.0946 84.1568 28.0405 84.0896 27.9724C84.0224 27.9043 83.9694 27.8235 83.9338 27.7346C83.8982 27.6458 83.8783 27.5507 83.8799 27.455ZM91.2661 31.2455C90.7911 31.4379 90.3185 31.6042 89.8649 31.6255C89.1824 31.6493 88.5128 31.4362 87.9696 31.0223C87.3189 30.476 86.8534 30.172 86.6586 29.222C86.5915 28.7578 86.6043 28.2854 86.6966 27.8255C86.8629 27.0489 86.6776 26.5502 86.129 26.0989C85.6849 25.7284 85.1173 25.6263 84.495 25.6263C84.282 25.6139 84.075 25.5504 83.8918 25.441C83.6305 25.3128 83.4168 24.9898 83.621 24.5908C83.6875 24.4625 84.001 24.149 84.077 24.092C84.9225 23.6123 85.8986 23.769 86.7988 24.13C87.6348 24.472 88.2665 25.099 89.1761 25.9873C90.1048 27.0584 90.2734 27.3553 90.803 28.158C91.221 28.7874 91.601 29.4334 91.8599 30.172C92.019 30.6352 91.8148 31.0128 91.2661 31.2455Z" fill="#4D6BFE"/>
</g>
<path d="M11.5 84.1666V61.6198H19.7344C21.9844 61.6198 23.9062 62.0573 25.5 62.9323C27.0938 63.8073 28.3177 65.0781 29.1719 66.7448C30.026 68.4114 30.4531 70.4323 30.4531 72.8073V72.8385C30.4531 75.2135 30.026 77.25 29.1719 78.9479C28.3281 80.6354 27.1042 81.927 25.5 82.8229C23.9062 83.7187 21.9844 84.1666 19.7344 84.1666H11.5ZM15.5312 80.776H19.3125C20.8333 80.776 22.1146 80.4739 23.1562 79.8698C24.1979 79.2552 24.9896 78.3645 25.5312 77.1979C26.0729 76.0208 26.3438 74.5729 26.3438 72.8541V72.8229C26.3438 71.1458 26.0677 69.7239 25.5156 68.5573C24.974 67.3906 24.1771 66.5104 23.125 65.9166C22.0833 65.3125 20.8125 65.0104 19.3125 65.0104H15.5312V80.776ZM40.5469 84.4948C38.8906 84.4948 37.4635 84.1458 36.2656 83.4479C35.0781 82.75 34.1667 81.7604 33.5312 80.4791C32.8958 79.1979 32.5781 77.6823 32.5781 75.9323V75.9166C32.5781 74.177 32.8958 72.6614 33.5312 71.3698C34.1771 70.0677 35.0781 69.0573 36.2344 68.3385C37.401 67.6198 38.776 67.2604 40.3594 67.2604C41.9323 67.2604 43.2917 67.6093 44.4375 68.3073C45.5938 68.9948 46.4792 69.9635 47.0938 71.2135C47.7188 72.4635 48.0312 73.9218 48.0312 75.5885V76.8385H34.5V74.2448H46.1719L44.2969 76.6666V75.1666C44.2969 74.0833 44.1302 73.1823 43.7969 72.4635C43.4635 71.7448 43.0052 71.2083 42.4219 70.8541C41.8385 70.4895 41.1667 70.3073 40.4062 70.3073C39.6354 70.3073 38.9479 70.4948 38.3438 70.8698C37.75 71.2343 37.2812 71.7812 36.9375 72.5104C36.6042 73.2395 36.4375 74.125 36.4375 75.1666V76.6666C36.4375 77.677 36.6042 78.5416 36.9375 79.2604C37.2812 79.9687 37.7656 80.5156 38.3906 80.901C39.0156 81.276 39.7604 81.4635 40.625 81.4635C41.2708 81.4635 41.8385 81.3645 42.3281 81.1666C42.8177 80.9583 43.2188 80.6927 43.5312 80.3698C43.8542 80.0468 44.0781 79.6979 44.2031 79.3229L44.2344 79.2135H47.8594L47.8281 79.3854C47.6927 80.0208 47.4427 80.6458 47.0781 81.2604C46.7135 81.8645 46.224 82.4114 45.6094 82.901C44.9948 83.3906 44.2656 83.7812 43.4219 84.0729C42.5781 84.3541 41.6198 84.4948 40.5469 84.4948ZM57.7969 84.4948C56.1406 84.4948 54.7135 84.1458 53.5156 83.4479C52.3281 82.75 51.4167 81.7604 50.7812 80.4791C50.1458 79.1979 49.8281 77.6823 49.8281 75.9323V75.9166C49.8281 74.177 50.1458 72.6614 50.7812 71.3698C51.4271 70.0677 52.3281 69.0573 53.4844 68.3385C54.651 67.6198 56.026 67.2604 57.6094 67.2604C59.1823 67.2604 60.5417 67.6093 61.6875 68.3073C62.8438 68.9948 63.7292 69.9635 64.3438 71.2135C64.9688 72.4635 65.2812 73.9218 65.2812 75.5885V76.8385H51.75V74.2448H63.4219L61.5469 76.6666V75.1666C61.5469 74.0833 61.3802 73.1823 61.0469 72.4635C60.7135 71.7448 60.2552 71.2083 59.6719 70.8541C59.0885 70.4895 58.4167 70.3073 57.6562 70.3073C56.8854 70.3073 56.1979 70.4948 55.5938 70.8698C55 71.2343 54.5312 71.7812 54.1875 72.5104C53.8542 73.2395 53.6875 74.125 53.6875 75.1666V76.6666C53.6875 77.677 53.8542 78.5416 54.1875 79.2604C54.5312 79.9687 55.0156 80.5156 55.6406 80.901C56.2656 81.276 57.0104 81.4635 57.875 81.4635C58.5208 81.4635 59.0885 81.3645 59.5781 81.1666C60.0677 80.9583 60.4688 80.6927 60.7812 80.3698C61.1042 80.0468 61.3281 79.6979 61.4531 79.3229L61.4844 79.2135H65.1094L65.0781 79.3854C64.9427 80.0208 64.6927 80.6458 64.3281 81.2604C63.9635 81.8645 63.474 82.4114 62.8594 82.901C62.2448 83.3906 61.5156 83.7812 60.6719 84.0729C59.8281 84.3541 58.8698 84.4948 57.7969 84.4948ZM67.7656 89.6354V67.6041H71.6406V70.4635H71.7344C72.0573 69.7968 72.4635 69.2291 72.9531 68.7604C73.4531 68.2812 74.0312 67.9114 74.6875 67.651C75.3542 67.3906 76.0781 67.2604 76.8594 67.2604C78.2656 67.2604 79.4792 67.6093 80.5 68.3073C81.5312 68.9948 82.3229 69.9843 82.875 71.276C83.4375 72.5677 83.7188 74.1041 83.7188 75.8854V75.901C83.7188 77.6718 83.4375 79.2031 82.875 80.4948C82.3229 81.776 81.5365 82.7656 80.5156 83.4635C79.5052 84.151 78.3073 84.4948 76.9219 84.4948C76.1406 84.4948 75.4115 84.3698 74.7344 84.1198C74.0677 83.8698 73.4792 83.5104 72.9688 83.0416C72.4583 82.5729 72.0469 82.0156 71.7344 81.3698H71.6406V89.6354H67.7656ZM75.7188 81.2291C76.5521 81.2291 77.2708 81.0104 77.875 80.5729C78.4792 80.1354 78.9427 79.5208 79.2656 78.7291C79.599 77.927 79.7656 76.9843 79.7656 75.901V75.8854C79.7656 74.7708 79.599 73.8177 79.2656 73.026C78.9427 72.2239 78.474 71.6093 77.8594 71.1823C77.2552 70.7552 76.5417 70.5416 75.7188 70.5416C74.9167 70.5416 74.2083 70.7604 73.5938 71.1979C72.9792 71.6354 72.4948 72.2552 72.1406 73.0573C71.7969 73.8489 71.625 74.7916 71.625 75.8854V75.901C71.625 76.9843 71.7969 77.927 72.1406 78.7291C72.4948 79.5208 72.9792 80.1354 73.5938 80.5729C74.2083 81.0104 74.9167 81.2291 75.7188 81.2291ZM94.5469 84.5573C92.8177 84.5573 91.3073 84.2968 90.0156 83.776C88.724 83.2552 87.7031 82.5104 86.9531 81.5416C86.2135 80.5729 85.7969 79.4166 85.7031 78.0729L85.6875 77.8385H89.5312L89.5625 78.026C89.6771 78.6718 89.9583 79.2291 90.4062 79.6979C90.8542 80.1666 91.4427 80.5312 92.1719 80.7916C92.9115 81.0416 93.75 81.1666 94.6875 81.1666C95.6354 81.1666 96.4531 81.0364 97.1406 80.776C97.8385 80.5156 98.375 80.1458 98.75 79.6666C99.125 79.177 99.3125 78.6093 99.3125 77.9635V77.9479C99.3125 77.1041 98.9948 76.4375 98.3594 75.9479C97.7344 75.4583 96.6927 75.0573 95.2344 74.7448L92.8125 74.2448C90.6042 73.7864 88.9479 73.0364 87.8438 71.9948C86.7396 70.9427 86.1875 69.5781 86.1875 67.901V67.8854C86.1979 66.552 86.5573 65.3906 87.2656 64.401C87.9844 63.401 88.974 62.625 90.2344 62.0729C91.4948 61.5104 92.9323 61.2291 94.5469 61.2291C96.1823 61.2291 97.6146 61.5 98.8438 62.0416C100.073 62.5833 101.036 63.3385 101.734 64.3073C102.443 65.276 102.833 66.401 102.906 67.6823L102.922 67.9479H99.0781L99.0469 67.7448C98.9531 67.0885 98.7083 66.5312 98.3125 66.0729C97.9167 65.6041 97.3958 65.2448 96.75 64.9948C96.1042 64.7448 95.3594 64.6198 94.5156 64.6198C93.6406 64.6198 92.8802 64.75 92.2344 65.0104C91.599 65.2604 91.1042 65.6145 90.75 66.0729C90.4062 66.5312 90.2344 67.0625 90.2344 67.6666V67.6823C90.2344 68.4739 90.5521 69.1198 91.1875 69.6198C91.8333 70.1093 92.8333 70.4948 94.1875 70.776L96.6094 71.276C98.9635 71.7656 100.677 72.5156 101.75 73.526C102.823 74.526 103.359 75.9062 103.359 77.6666V77.6823C103.359 79.0781 103.005 80.2916 102.297 81.3229C101.599 82.3541 100.589 83.151 99.2656 83.7135C97.9531 84.276 96.3802 84.5573 94.5469 84.5573ZM113.266 84.4948C111.609 84.4948 110.182 84.1458 108.984 83.4479C107.797 82.75 106.885 81.7604 106.25 80.4791C105.615 79.1979 105.297 77.6823 105.297 75.9323V75.9166C105.297 74.177 105.615 72.6614 106.25 71.3698C106.896 70.0677 107.797 69.0573 108.953 68.3385C110.12 67.6198 111.495 67.2604 113.078 67.2604C114.651 67.2604 116.01 67.6093 117.156 68.3073C118.312 68.9948 119.198 69.9635 119.812 71.2135C120.438 72.4635 120.75 73.9218 120.75 75.5885V76.8385H107.219V74.2448H118.891L117.016 76.6666V75.1666C117.016 74.0833 116.849 73.1823 116.516 72.4635C116.182 71.7448 115.724 71.2083 115.141 70.8541C114.557 70.4895 113.885 70.3073 113.125 70.3073C112.354 70.3073 111.667 70.4948 111.062 70.8698C110.469 71.2343 110 71.7812 109.656 72.5104C109.323 73.2395 109.156 74.125 109.156 75.1666V76.6666C109.156 77.677 109.323 78.5416 109.656 79.2604C110 79.9687 110.484 80.5156 111.109 80.901C111.734 81.276 112.479 81.4635 113.344 81.4635C113.99 81.4635 114.557 81.3645 115.047 81.1666C115.536 80.9583 115.938 80.6927 116.25 80.3698C116.573 80.0468 116.797 79.6979 116.922 79.3229L116.953 79.2135H120.578L120.547 79.3854C120.411 80.0208 120.161 80.6458 119.797 81.2604C119.432 81.8645 118.943 82.4114 118.328 82.901C117.714 83.3906 116.984 83.7812 116.141 84.0729C115.297 84.3541 114.339 84.4948 113.266 84.4948ZM130.516 84.4948C128.859 84.4948 127.432 84.1458 126.234 83.4479C125.047 82.75 124.135 81.7604 123.5 80.4791C122.865 79.1979 122.547 77.6823 122.547 75.9323V75.9166C122.547 74.177 122.865 72.6614 123.5 71.3698C124.146 70.0677 125.047 69.0573 126.203 68.3385C127.37 67.6198 128.745 67.2604 130.328 67.2604C131.901 67.2604 133.26 67.6093 134.406 68.3073C135.562 68.9948 136.448 69.9635 137.062 71.2135C137.688 72.4635 138 73.9218 138 75.5885V76.8385H124.469V74.2448H136.141L134.266 76.6666V75.1666C134.266 74.0833 134.099 73.1823 133.766 72.4635C133.432 71.7448 132.974 71.2083 132.391 70.8541C131.807 70.4895 131.135 70.3073 130.375 70.3073C129.604 70.3073 128.917 70.4948 128.312 70.8698C127.719 71.2343 127.25 71.7812 126.906 72.5104C126.573 73.2395 126.406 74.125 126.406 75.1666V76.6666C126.406 77.677 126.573 78.5416 126.906 79.2604C127.25 79.9687 127.734 80.5156 128.359 80.901C128.984 81.276 129.729 81.4635 130.594 81.4635C131.24 81.4635 131.807 81.3645 132.297 81.1666C132.786 80.9583 133.188 80.6927 133.5 80.3698C133.823 80.0468 134.047 79.6979 134.172 79.3229L134.203 79.2135H137.828L137.797 79.3854C137.661 80.0208 137.411 80.6458 137.047 81.2604C136.682 81.8645 136.193 82.4114 135.578 82.901C134.964 83.3906 134.234 83.7812 133.391 84.0729C132.547 84.3541 131.589 84.4948 130.516 84.4948ZM140.656 84.1666V61.6198H144.531V84.1666H140.656ZM151.094 84.1666L145.547 76.6354L148.031 73.7604L155.578 84.1666H151.094ZM143.969 79.0104V74.4791H144.625L150.812 67.6041H155.297L147.578 75.9948H146.859L143.969 79.0104Z" fill="#98C0EF"/>
<defs>
<clipPath id="clip0_18_178">
<rect width="57" height="57" fill="white" transform="translate(54)"/>
</clipPath>
</defs>
</svg>
