<svg width="40" height="40" viewBox="0 0 40 40" fill="none" xmlns="http://www.w3.org/2000/svg">
<path d="M29.6718 33.3334L32.9884 33.3334C33.7091 33.3334 34.0698 33.3334 34.3726 33.2097C34.64 33.1005 34.8752 32.923 35.0537 32.6959C35.2559 32.4386 35.3553 32.0926 35.5534 31.3993L37.3629 25.066C37.6926 23.912 37.8566 23.335 37.7271 22.8785C37.6136 22.4786 37.3552 22.1356 37.0019 21.9167C36.6219 21.6812 36.0667 21.6676 35.0004 21.6668M29.6718 33.3334H10.3282M29.6718 33.3334C31.535 33.3334 32.4666 33.3334 33.179 32.9705C33.8062 32.6509 34.3175 32.1403 34.637 31.5131C35.0004 30.8 35.0004 29.8666 35.0004 27.9998V21.6668M10.3282 33.3334H8.53516C7.33587 33.3334 6.73458 33.3334 6.33138 33.0836C5.97805 32.8646 5.71907 32.5215 5.60563 32.1216C5.58173 32.0374 5.56788 31.949 5.56327 31.8537M10.3282 33.3334C8.46499 33.3334 7.532 33.3334 6.81966 32.9705C6.3104 32.711 5.87869 32.3253 5.56327 31.8537M35.0004 21.6668C34.9347 21.6667 34.8672 21.6667 34.7976 21.6667H8.33379L5.97168 29.9342L5.96826 29.9457C5.70139 30.8797 5.54296 31.4343 5.56327 31.8537M35.0004 21.6668L35.0004 15.333C35.0004 13.4662 35.0004 12.5328 34.637 11.8197C34.3175 11.1925 33.8065 10.683 33.1793 10.3634C32.4663 10.0001 31.5335 10.0001 29.6667 10.0001H20M5.56327 31.8537C5.49022 31.7445 5.42341 31.6307 5.36331 31.5127C5 30.7997 5 29.8669 5 28.0001V10.0001M5 10.0001H20M5 10.0001C5 8.15913 6.49238 6.66675 8.33333 6.66675H14.4575C15.2728 6.66675 15.6814 6.66675 16.0651 6.75885C16.4052 6.8405 16.7298 6.97552 17.028 7.15828C17.3643 7.36436 17.653 7.65311 18.2292 8.22925L20 10.0001" stroke="#F17625" stroke-width="3" stroke-linecap="round" stroke-linejoin="round"/>
</svg>
