<svg width="40" height="40" viewBox="0 0 40 40" fill="none" xmlns="http://www.w3.org/2000/svg">
<path d="M12.1094 3.4844C10.3672 3.93752 8.92185 5.39846 8.47654 7.14846C8.3281 7.74221 8.3281 8.89846 8.47654 9.49221C8.64841 10.1641 9.14841 11.1406 9.57029 11.625C9.99216 12.1016 10.75 12.6563 11.2734 12.8828L11.6406 13.0391V19.9922V26.9453L11.2812 27.1016C10.75 27.336 9.98435 27.9063 9.57029 28.375C9.1406 28.8672 8.6406 29.8438 8.46873 30.5469C8.28123 31.2891 8.35154 32.5938 8.60935 33.2969C9.15623 34.7578 10.2422 35.8438 11.7031 36.3906C12.4062 36.6485 13.7109 36.7188 14.4531 36.5313C16.5156 36.0156 17.9531 34.4297 18.2812 32.3047C18.4297 31.3828 18.2734 30.4531 17.7969 29.461C17.3672 28.5625 16.4765 27.6563 15.6094 27.2266L15 26.9297V25.9688V25.0078L18.8906 24.9844C22.2578 24.9531 22.8359 24.9375 23.2422 24.8203C25.3125 24.2344 26.8672 22.9453 27.7031 21.1328C28.1797 20.1094 28.289 19.5156 28.3359 17.8516L28.3828 16.3672L28.7812 16.1875C30.0469 15.625 31.164 14.2735 31.5234 12.8516C31.664 12.3125 31.6797 11.2031 31.5547 10.6094C31.4297 9.97659 30.8437 8.85159 30.3906 8.34377C29.8437 7.7344 28.9609 7.16409 28.1797 6.90627C27.4375 6.66409 26.2734 6.61721 25.5469 6.78909C24.1484 7.12502 22.8047 8.19534 22.2031 9.46096C21.3984 11.1485 21.5078 12.9141 22.5156 14.4141C23.0156 15.1641 23.6406 15.7188 24.3984 16.0781L25 16.3672L24.9765 17.7344C24.9531 18.9063 24.9297 19.1641 24.789 19.5156C24.539 20.1328 24.039 20.75 23.4922 21.1016C22.6562 21.6406 22.664 21.6406 18.6172 21.6406H15V17.3594V13.0703L15.6094 12.7735C16.4765 12.3438 17.3672 11.4375 17.7969 10.5391C17.9687 10.1797 18.1562 9.68752 18.2109 9.45315C18.3515 8.85159 18.3359 7.71877 18.1797 7.1094C17.7109 5.32815 16.2656 3.89065 14.5078 3.47659C13.8984 3.32815 12.6719 3.33596 12.1094 3.4844ZM14.1953 6.9219C15.1015 7.44534 15.25 8.74221 14.5 9.49221C13.9609 10.0313 13.2734 10.1406 12.5859 9.7969C11.539 9.27346 11.3515 7.89065 12.2344 7.12502C12.8203 6.6094 13.5312 6.53127 14.1953 6.9219ZM27.414 10.2031C28.4453 10.7188 28.6406 11.9922 27.8125 12.8125C26.9922 13.6406 25.7187 13.4453 25.2031 12.4141C24.8594 11.711 24.9609 11.0469 25.5078 10.5C26.0469 9.96096 26.7109 9.8594 27.414 10.2031ZM13.8594 30.0938C14.4922 30.2891 15 31.0156 15 31.7344C15 32.1328 14.6406 32.7891 14.289 33.0235C13.5703 33.5 12.789 33.4219 12.1875 32.8125C11.3594 31.9922 11.5547 30.7188 12.5859 30.2031C13.039 29.9766 13.375 29.9531 13.8594 30.0938Z" fill="#3CB179"/>
</svg>
