<svg width="32" height="32" viewBox="0 0 32 32" fill="none" xmlns="http://www.w3.org/2000/svg">
<path fill-rule="evenodd" clip-rule="evenodd" d="M11.2793 11.2793C12.4004 10.1583 13.9208 9.52847 15.5062 9.52847C17.0915 9.52847 18.612 10.1583 19.733 11.2793C20.854 12.4003 21.4838 13.9207 21.4838 15.5061C21.4838 17.0915 20.854 18.6119 19.733 19.7329C18.612 20.8539 17.0915 21.4837 15.5062 21.4837C13.9208 21.4837 12.4004 20.8539 11.2793 19.7329C10.1583 18.6119 9.52853 17.0915 9.52853 15.5061C9.52853 13.9207 10.1583 12.4003 11.2793 11.2793ZM14.0212 19.0911C14.492 19.2861 14.9966 19.3865 15.5062 19.3865C16.5353 19.3865 17.5223 18.9777 18.25 18.25C18.9777 17.5223 19.3866 16.5352 19.3866 15.5061C19.3866 14.4769 18.9777 13.4899 18.25 12.7622C17.5223 12.0345 16.5353 11.6257 15.5062 11.6257C14.9966 11.6257 14.492 11.726 14.0212 11.9211C13.5504 12.1161 13.1226 12.4019 12.7623 12.7622C12.402 13.1226 12.1161 13.5503 11.9211 14.0211C11.7261 14.4919 11.6257 14.9965 11.6257 15.5061C11.6257 16.0157 11.7261 16.5203 11.9211 16.9911C12.1161 17.4619 12.402 17.8896 12.7623 18.25C13.1226 18.6103 13.5504 18.8961 14.0212 19.0911Z" fill="#EFEEEC"/>
<path d="M22.8089 10.4191C23.0739 10.1541 23.2228 9.79468 23.2228 9.41993C23.2228 9.04517 23.0739 8.68577 22.8089 8.42078C22.544 8.15579 22.1846 8.00693 21.8098 8.00693C21.435 8.00693 21.0756 8.15579 20.8107 8.42078C20.5457 8.68577 20.3968 9.04517 20.3968 9.41993C20.3968 9.79468 20.5457 10.1541 20.8107 10.4191C21.0756 10.6841 21.435 10.8329 21.8098 10.8329C22.1846 10.8329 22.544 10.6841 22.8089 10.4191Z" fill="#EFEEEC"/>
<path fill-rule="evenodd" clip-rule="evenodd" d="M10.7116 3.94624C11.9521 3.88965 12.3475 3.87646 15.5062 3.87646C18.6655 3.87646 19.0602 3.89042 20.2999 3.94624C21.5381 4.00284 22.3847 4.20054 23.1243 4.48663C23.9 4.77881 24.6028 5.23653 25.1836 5.82792C25.7751 6.40887 26.2329 7.11188 26.5248 7.88791C26.8125 8.62756 27.0094 9.47342 27.066 10.7116C27.1226 11.9521 27.1358 12.3475 27.1358 15.5061C27.1358 18.6647 27.1226 19.0601 27.066 20.3006C27.0094 21.5388 26.8125 22.3846 26.5256 23.1243C26.2334 23.9 25.7757 24.6027 25.1843 25.1835C24.6029 25.7758 23.8997 26.2333 23.1243 26.5248C22.3847 26.8124 21.5388 27.0094 20.3007 27.0659C19.0602 27.1225 18.6648 27.1357 15.5062 27.1357C12.3475 27.1357 11.9521 27.1225 10.7116 27.0659C9.47348 27.0094 8.62762 26.8124 7.88797 26.5256C7.11228 26.2334 6.40958 25.7756 5.82875 25.1843C5.23642 24.6028 4.77899 23.8996 4.48747 23.1243C4.19983 22.3846 4.0029 21.5388 3.9463 20.3006C3.88971 19.0601 3.87653 18.6655 3.87653 15.5061C3.87653 12.3467 3.89048 11.9521 3.9463 10.7124C4.0029 9.47419 4.20061 8.62756 4.48669 7.88791C4.77888 7.11221 5.23659 6.4095 5.82798 5.82869C6.40946 5.23636 7.11266 4.77892 7.88797 4.48741C8.62762 4.19977 9.47348 4.00284 10.7116 3.94624ZM20.2061 6.03958C18.9795 5.98375 18.6113 5.97212 15.5062 5.97212C12.401 5.97212 12.0328 5.98375 10.8062 6.03958C9.67273 6.09152 9.05714 6.2807 8.647 6.44041C8.14182 6.62647 7.6848 6.92346 7.30959 7.30953C6.90333 7.71657 6.65058 8.10422 6.44047 8.64694C6.27998 9.05708 6.09158 9.67267 6.03964 10.8062C5.98382 12.0327 5.97219 12.401 5.97219 15.5061C5.97219 18.6112 5.98382 18.9795 6.03964 20.206C6.09158 21.3395 6.28076 21.9551 6.44047 22.3653C6.62665 22.8704 6.92363 23.3274 7.30959 23.7027C7.68485 24.0887 8.14185 24.3857 8.647 24.5718C9.05714 24.7323 9.67273 24.9207 10.8062 24.9726C12.0328 25.0284 12.4003 25.0401 15.5062 25.0401C18.612 25.0401 18.9795 25.0284 20.2061 24.9726C21.3396 24.9207 21.9552 24.7315 22.3653 24.5718C22.8705 24.3857 23.3275 24.0888 23.7027 23.7027C24.0887 23.3274 24.3857 22.8704 24.5718 22.3653C24.7323 21.9551 24.9207 21.3395 24.9727 20.206C25.0285 18.9795 25.0401 18.6112 25.0401 15.5061C25.0401 12.401 25.0285 12.0327 24.9727 10.8062C24.9207 9.67267 24.7316 9.05708 24.5718 8.64694C24.3617 8.10422 24.1098 7.71657 23.7027 7.30953C23.2957 6.90327 22.908 6.65052 22.3653 6.44041C21.9552 6.27992 21.3396 6.09152 20.2061 6.03958Z" fill="#EFEEEC"/>
</svg>
