<?xml version="1.0" encoding="UTF-8"?><svg id="Layer_2" xmlns="http://www.w3.org/2000/svg" viewBox="0 0 281.44 302.11"><defs><style>.cls-1{fill:#070707;}</style></defs><g id="Layer_1-2"><path class="cls-1" d="M278.27,166.11c-3.1-5.65-10.34-9.44-17.45-9.2,1.37-13.36,2.95-29.85-5.97-40.79-5.03-6.17-13.2-7.28-19.82-8.14l-.18-.18.29-12.57c-.05-1.26-.13-2.58-.21-3.92-.23-3.88-.46-7.89-.13-11.42.19-2.11.85-4.4,1.54-6.81.74-2.58,1.5-5.25,1.68-7.76v-.08s-.01-.08-.01-.08c-.51-2.44-2.51-2.21-4.12-2.03-1.03.12-2.1.24-2.8-.25l-1.08.07c-.41.03-.79.21-1.06.52l-2.92,3.33c-.17-.17-.41-.44-.59-.66-.82-.97-1.95-2.29-3.44-2.5-3.18-.43-5.49.23-6.75,1.93-4.93-5.22-10.72-7.51-16.47-6.44-1.21.4-3.23,4.48-7.02,12.92-.88,1.96-1.64,3.65-2,4.3l-.06.18c-.29,1.7.69,3.25,1.48,4.5l.1.16c3.26,5.17,10.11,8.73,16.54,8.63,1.27,3.48,4.54,6.43,9.09,8.18-.04,2.12-.19,4.26-.34,6.08-.28,3.45-.56,6.98-.85,10.56-1.32,16.68-2.68,33.93-5.11,49.47-.24,1.55-.59,3.12-.92,4.63-.32,1.47-.66,2.98-.9,4.51-7.73-1.6-15.75-1.3-23.51-1.01l-2.48.09c-.14-.26-.35-.76-.57-1.37.05-.18.08-.37.08-.58v-21.55c0-2.64-4.12-2.64-4.12,0v12.32c-1.16-1.96-2.55-3.87-4.05-5.18-3.33-2.91-7.22-4.14-10.39-3.29-2.16.58-3.85,2.08-4.95,4.39-.13-.28-.26-.58-.4-.88-1.96-4.32-4.63-10.24-10.14-9.41-1.45.22-2.67,1.23-3.68,2.52-.72-1.83-3.97-1.57-3.97.78v6.51s0,.04,0,.06c-2.58,5.53-4.85,11.38-7.04,17.07-1.31,3.41-2.66,6.94-4.07,10.35-.19.31-1.49.9-2.2,1.1-1.09-6.78-3.44-13.55-6.83-19.61-.24-.43-.86-1.32-1.52-2.26-.64-.91-1.6-2.28-1.69-2.51-.03-.15.04-.39.1-.65.09-.33.19-.71.16-1.14-.07-1.05-.61-2.61-1.13-4.12-.37-1.07-.72-2.08-.89-2.86-.45-2.04-.72-4.33-.81-6.73,0,0,0,0,.01,0,7.64-2.93,15.83-3.53,23.68-1.73.9.2,1.62-.16,2.07-.74.04,0,.08.02.13.02-.23.24-.43.52-.54.84-.25.72-.11,1.47.39,2.06l.61.73.07-.07c.29.19.62.28.95.28.43,0,.88-.16,1.27-.5.7-.59,1.07-1.64.59-2.59l.04-.05-.56-.65c-.32-.38-.73-.6-1.17-.66.49-.45.8-1.11.68-1.9-1.39-9.4-1.3-18.94.25-28.35.05-.31.03-.6-.03-.87,9.63-1.2,20.39-.12,29.88,2.12.55.13,1.64.46,2.91.85,4.07,1.24,6,1.76,6.69,1.64,1.02-.2,1.17-.87,1.25-1.24.03-.12.05-.23.09-.28,1.49-1.81,19.41-3.63,23.85-3.76.42-.01,1.18.04,2,.09,3.33.22,4.82.22,5.38-.32.61-.59.44-2.22.26-2.81-.05-.17-.2-.67-.78-.76h-1.18c-11.04.01-22.46.02-32.66,4.55-16.63-5.13-39.62-7.54-54.52.97-7.33,4.19-12.07,10.65-14.08,19.2-2.26,9.57-2.18,17.14.27,25.08-2.38-.37-4.85-.41-7.24-.44-.97-.01-1.93-.03-2.89-.06-.96-.04-1.93-.08-2.91-.12-10.52-.48-22.45-1.03-28.21,10.62-4.45,9-2.94,33.38-2.22,45.09l.04.72c.58,9.4,1.37,22.28,3.4,32.18.91,4.46,1.95,9.5,8.49,10.22,3.85.42,8.2.27,12.4.13,3.01-.1,6.13-.21,8.97-.1.27.01.54.07.82.14.33.08.69.15,1.09.16-.3.82-.73,1.8-1.17,2.82-1.31,3.01-2.65,6.12-2.32,7.93.57,3.05,3.88,3.55,6.54,3.96.63.1,1.24.19,1.77.31l-1.45,8.37c-.43-.11-.89-.24-1.38-.37-5.67-1.53-14.23-3.84-18.8-.72-1.66,1.13-2.63,2.89-2.89,5.23-.4,3.71.64,6.02,3.61,7.97,4.78,3.14,22.25,5.63,27.65,5.63h.02c3.82,0,5.26-1.13,5.92-4.65.75-3.96.97-8.22,1.18-12.33.09-1.75.19-3.56.32-5.3.06.01.12.03.18.04.99.18,2.1.58,3.28.99,2.66.94,5.42,1.9,7.48.77,1.14-.63,1.89-1.8,2.3-3.57.73-3.2,1.17-6.53,1.59-9.76.33-2.55.68-5.18,1.17-7.72l.17-.22h7.16s.06.04.09.06c.06.04.12.07.18.11l-1.84,20.77.03.11c.57,1.89,4.42,2.31,9.39,2.66.9.06,1.7.12,2.28.19l-.84,6.71c-.95-.2-2.03-.47-3.16-.75-5.55-1.37-12.46-3.09-15.95-.04-1.69,1.48-2.36,3.93-1.99,7.3.92,8.37,16.07,10.2,25.02,10.55h.27c.85.04,1.94.09,3.1.09,2.37,0,5-.19,6.33-1.03.56-.35,1.93-1.89,1.93-2.78v-17.9c2.56.32,11.51,1.17,12.64-2.45l.03-.11-2.08-23.27c.45.05.89-.04,1.3-.11.27-.05.55-.1.84-.11,12.09-.43,24.6-.16,36.71.1,13.59.3,27.65.6,41.18-.09h.17c2.77-.15,6.96-.36,9.15-1.93,2.58-1.85,3-4.97,3.38-7.72l.13-.9c3.22-22.04,5.33-40.72,6.29-55.53.46-7.12.98-15.19-2.85-22.17ZM114.71,140.93c.37-6.94,2.22-14.16,5.83-18.84,4.27-5.54,10.88-8.75,18.49-10.31-1.43,9.15-1.56,18.44-.38,27.64-8.06-1.7-16.29-1.18-23.95,1.5ZM115.13,197.03l11.93-7-2.33,7h-9.6ZM152.5,202.73l-5.21,47.53h-7.35s6.74-48.79,6.74-48.79l5.59-.16.24,1.42ZM113.42,240.87c3.18-9.28,6.46-18.88,9.82-28.26l1.88-5.27c5.89-16.52,11.98-33.6,19.22-49.12.13-.29.29-.65.46-1.05.88-2.05,2.53-5.87,4.4-6.31.55-.13,1.1.05,1.69.55,1.49,1.27,3.76,6.09,4.5,8.22,1.7,4.84,1.15,7.98.46,11.95-.24,1.39-.5,2.84-.69,4.51-.33,2.9-.63,5.8-.92,8.7-.41,4.03-.83,8.19-1.35,12.27h-5.05s3.23-20.67,3.23-20.67l-.46-1.3-.15-.11c-.8-.57-1.69-.75-2.38-.47-.59.24-.99.78-1.14,1.52-2.99,16.13-5.29,32.65-7.51,48.62-1.85,13.25-3.75,26.95-6.04,40.34-.03.18-.07.47-.13.84-.5,3.37-.92,5.39-1.25,6.02l-26.66-6.79-.2-.27c2.81-7.95,5.59-16.06,8.27-23.91ZM110.9,194.62c-.48-9.09-2.97-20.7-11.81-26.49-4.02-2.63-10.11-4.17-13.99-2.02l-.36.2.47,2.84h.5c5.95-.15,9.48.43,13.41,4.08,9.14,8.47,8.21,29.11,7.58,42.77-.09,2.07-.18,4-.23,5.73-.1,3.77-.29,7.58-.46,11.27l-.19,4.16c-.22,4.78-.28,9.43-.31,13.42h-25.47c-.38-.13-1.58-1.01-1.94-1.43-1.73-2-2.73-11.15-3.16-15.05l-.14-1.24c-1.42-12.34-3.62-35.89-2.3-55.08.45-6.49,2.87-14.78,11.88-17.41,5.61-1.64,17.93-.88,24.77-.29,2.76.24,3.22.85,4.74,2.86l.41.55c5.32,6.99,7.76,15.6,9.43,23.18l-12.84,7.95ZM109.75,238.91l1.18-38.07,12.1.59-13.27,37.47ZM149.26,273.56c-.17-.39-.14-1.59.07-3.57.02-.22.04-.41.06-.54,2.25-26.59,5.38-56.02,9.86-92.63l.15-1.26c.52-4.43,1.89-16.19,4.1-18.27,2.6-2.45,7.12,1.1,7.62,1.51,2.72,2.22,5.39,7.37,6.61,11.32.26.84.42,1.81.58,2.75.16.97.32,1.88.57,2.67.56,1.75,3.54,1.25,5.94.85.67-.11,1.25-.21,1.61-.22,8.97-.36,15.57-.11,20.17.74.36.07.88.26,1.42.46,1.54.56,3.45,1.26,4.51.21.73-.72.54-1.77.39-2.61-.07-.4-.14-.78-.12-1.07.24-3.15.89-6.77,1.52-10.26.53-2.95,1.09-5.99,1.4-8.83,1.24-11.07,2.21-22.37,3.14-33.3.67-7.82,1.36-15.91,2.15-23.84.03-.26.12-.53.22-.82.29-.84.72-2.12-1.23-3.09-.61-.3-1.14-.02-1.52.19-.3.16-.49.25-.7.22-1.02-.16-5.39-3.65-5.78-4.61-.25-.62-.32-1.44-.19-2.39,0-.06.02-.14.04-.22.36,1.45,1.07,2.5,2.09,3,.87.43,2.35.65,4.47-.77,1.96-1.31,3.92-5.98,4.76-9.68l.04.02c.3.11.6.26.89.4,1.09.53,2.33,1.13,3.78.17l.17-.11.09-.26c.14.25.38.48.71.67.55.32,1.39.54,1.99.09.02-.02.04-.04.06-.06-.47,6.92-.37,14.7-.28,22.24.06,4.67.11,9.09.04,13.31-.09,5.21-.12,10.63-.15,15.87-.07,11.74-.13,23.88-.83,35.37-.16,2.6-.59,3.81-1.19,5.48-.24.66-.49,1.38-.77,2.26-1.24,4.05-1.39,8.67-1.54,13.14-.05,1.42-.09,2.83-.17,4.18-2.41,3.1-5.86,5.07-9.48,5.41-7.48.71-15.92.8-24.08.9-3.2.04-6.34.07-9.34.14-1.78.04-3.61,0-5.38-.02-.61-.01-1.22-.02-1.82-.03l-.28-.4-1.68-20.81-.03-.14c-.19-.57-.67-.96-1.31-1.07-.84-.14-1.82.2-2.3.81-.57.72-.34,2.5.04,4.94.09.58.17,1.09.2,1.41,2.52,32.16,6.05,63.58,9.48,92.75-.01,0-.02.01-.04.02l-.17.08c-2.09,1.12-11.06-.37-16.42-1.26-1.76-.29-3.27-.54-4.24-.66-1.71-.2-3.49-.3-5.2-.4-1.55-.09-3.16-.17-4.71-.34ZM212.66,76.97c-.91.38-1.89,2.43-3.4,5.77-.53,1.18-1.04,2.3-1.39,2.9-4.66.55-10.69-2.83-13.06-6.33-1.22-1.8-.33-3.47.7-5.4.14-.26.28-.52.41-.78.85-1.66,1.83-3.22,2.27-3.63l17.91,8.39-.05.28c-.18-.1-.37-.21-.56-.32-1.07-.61-2.07-1.19-2.83-.88ZM216.17,80.25c.57-.11,1.17-.24,1.79-.4.65-.17,1.19.54.87,1.13-.97,1.74-2.01,3.52-3.08,5.26-.02-.6-.05-1.2-.08-1.79-.04-1.02-.1-2.3-.12-3.42,0-.38.25-.71.63-.78ZM220.8,70.68c-.27-.1-.6-.18-.98-.18-.67,0-1.49.24-2.44.97-.2-.21-.45-.36-.61-.45-.02-.01-.04-.03-.07-.04.08-.69,1.19-2.11,2.66-2.81.78-.37,1.87-.64,2.6.21,1.05,1.21,1.26,3.22,1.21,5.28-.43-1.34-1.2-2.52-2.38-2.97ZM257.63,149.76c-.1,1.3-.62,6.02-.9,7.19l-1.21.21c-3.55.62-7.23,1.27-10.66,2.62-3.79,1.5-7,3.88-10.1,6.18-.41.31-.82.61-1.24.91l.49-21.28c.11,0,.22,0,.33-.03h0c4.35-.81,8.9-.31,13.16,1.47.26.11.53.16.78.16.37,0,.71-.12,1.01-.34.57-.43.87-1.23.77-2.02-.1-.79-.58-1.42-1.32-1.73-4.56-1.9-9.6-2.46-14.63-1.65l.68-29.47c1.66.01,8.25,1.51,9.68,1.98,10.29,3.37,14.71,15.41,13.15,35.79ZM181.14,202.78c.75.02,1.38.03,1.7.02,4.41-.19,9.04-.26,13.51-.33,6.55-.1,13.32-.2,19.67-.68,3.74-.28,6.77-1.4,9.93-3.71l1.75,52.16h-46.51s-4.69-47.39-4.69-47.39c.88-.18,3.46-.11,4.64-.08ZM231.43,240.5c-.06-2.21-.12-4.42-.22-6.62-.1-2.36-.21-4.72-.33-7.09-.58-12.33-1.18-25.08-.69-37.55.49-12.47,2.36-16.01,3.43-17.02,7.36-6.89,15.58-10.65,24.45-11.18,6.65-.41,11.42,1,14.58,4.27,6.12,6.35,4.94,18.66,3.89,29.53l-.18,1.88c-1.3,13.87-3.13,29.41-5.29,44.95-.06.45-.12.93-.17,1.42-.33,3.04-.67,6.18-3.77,6.74-7.46.56-15.11.48-22.51.41-2.56-.02-5.17-.05-7.79-.05-1.67,0-3.35.01-5.01.04-.2-3.25-.29-6.55-.38-9.75ZM157.85,289.7c1.24-.38,1.5-1.57,1.68-2.44.04-.18.08-.35.12-.52.48-1.8.69-3.67.9-5.47.08-.72.16-1.45.26-2.17l6.29.81c.03.18.08.34.12.48.02.07.05.14.05.18v17.23c-1.88.48-12.73-.25-15.23-.6-5.73-.8-13.33-2.44-13.2-7.42.03-1.17.36-1.98,1.01-2.49.64-.5,1.57-.68,2.62-.68,1.57,0,3.41.41,4.91.74.49.11.95.21,1.37.29,1.24.24,2.51.59,3.74.92,1.67.45,3.4.92,5.11,1.16l.13.02.12-.04ZM200.68,63.31c2.91.5,7.57,2.03,8.79,2.64,1.73.87,3.67,2.44,5.43,4.09l-14.22-6.73ZM118.65,282.82l-.07.91c-.17,2.25-.46,6.02-.92,7.48-.25.81-.34.82-1.55.79-5.08-.08-20.35-2-24.89-4.38-2.12-1.11-2.95-3.35-2.68-5,.24-1.43,1.22-2.38,2.7-2.61.41-.06.92-.09,1.49-.09,3.63,0,9.94,1.19,12.84,2.18.3.1.78.36,1.25.6,1.18.62,1.93.99,2.47.85,2.22-.58,3.2-8.31,3.56-12.29l6.1,1.43c.11,3.02,0,6.25-.3,10.12Z"/><path class="cls-1" d="M212.28,60.52h.12c1.46-.06,1.8-2.11,2.13-4.09.08-.49.16-.99.26-1.39,1.16.87,2.88,1.62,4.11,1.06.6-.27,1.28-.94,1.15-2.6-.04-.49-.23-.91-.39-1.25-.11-.23-.21-.47-.21-.6.01-.34.28-.89.54-1.43.24-.5.49-1.01.62-1.51.51.05,1.03.32,1.58.6,1.01.52,2.26,1.18,3.66.3l.15-.09.07-.16c.43-.96.11-1.75-.15-2.38-.17-.42-.33-.81-.3-1.25.11-2.19,2.24-6.42,3.87-7.66.31-.23.9-.48,1.47-.72,1.26-.53,2.56-1.08,2.8-2.1.12-.51-.05-1.03-.5-1.55-1.16-1.34-3.68-.31-5.07.43-3.21,1.69-4.63,5.21-5.88,8.31-.28.7-.56,1.39-.85,2.04-.26.12-.71.02-1.19-.09-.79-.18-1.77-.4-2.44.4-.54.65-.93,1.99-1.32,3.29-.25.84-.5,1.7-.7,2.01-.17.26-.56.32-1.19.38-.51.05-1.09.12-1.58.41-1.24.73-2.33,3.92-2.64,5.94-.23,1.48-.1,2.49.38,3.03l1.49.68Z"/><path class="cls-1" d="M238.74,175.16c.08,0,.17,0,.25-.02.79-.11,2.15-.74,3.6-1.41,1.12-.52,2.27-1.05,3.05-1.29.67-.2,1.7-.4,2.8-.61,1.77-.33,3.59-.68,4.46-1.17.85-.48,1.24-1.5.94-2.44-.3-.95-1.22-1.48-2.33-1.36-2.85.31-11.64,2.56-14.02,4.51-.8.65-1.05,1.6-.67,2.47.35.79,1.13,1.31,1.92,1.31Z"/><path class="cls-1" d="M175.79,137.76h0c-9.8-1.07-19.69-.46-29.4,1.82-1.25.29-1.67,1.42-1.45,2.39.2.87.95,1.66,1.99,1.66.16,0,.33-.02.51-.06,9.21-2.16,18.71-2.73,28.22-1.69.7.07,1.3-.17,1.68-.68.43-.58.5-1.43.18-2.16-.32-.72-.95-1.18-1.73-1.27Z"/><path class="cls-1" d="M182.29,138.35l1.25-20.04c.08-1.26-.86-1.98-1.82-2.04-1.06-.08-2.21.6-2.29,1.96l-1.25,20.04c-.04.71.25,1.34.8,1.7.11.07.23.11.35.16-.03.01-.07.02-.09.03-.28.09-.52.25-.69.43-.22.2-.37.44-.43.63-.14.26-.2.55-.19.92l.07.47c.1.35.28.65.58.96l.36.28c.32.18.67.28,1.04.28h.23s.05,0,.07,0c.28,0,.54-.06.7-.16.28-.09.52-.25.69-.43.22-.2.37-.44.42-.63.14-.27.21-.56.19-.92l-.07-.47c-.1-.35-.28-.65-.58-.95l-.36-.28c-.1-.06-.21-.09-.32-.14.07-.03.14-.04.21-.08.67-.33,1.09-.97,1.13-1.73Z"/><path class="cls-1" d="M211.36,141.83c-8.21-2.47-16.99-2.73-25.39-.74-.71.17-1.22.64-1.42,1.29-.22.73-.01,1.56.52,2.13.5.53,1.21.74,1.95.56,7.63-1.8,15.66-1.55,23.22.73.22.07.43.1.62.1.93,0,1.61-.67,1.85-1.46.29-.98-.08-2.22-1.35-2.6Z"/><path class="cls-1" d="M59.97,74.57c1.66,2.17,4.22,3.47,8.04,4.1,3.52.58,7.15.91,10.34,1.21,7.17.67,14.39,1,21.61,1s14-.31,20.96-.94c8.98-.81,16.68-1.89,23.54-3.32,3.71-.77,5.88-2.32,6.51-4.6.35-.34.57-.83.55-1.45l-1.08-31.92c-.03-.76-.41-1.39-1.05-1.73-.19-.1-.39-.17-.6-.21-.21-.49-.63-.91-1.28-1.11-15.62-4.65-32.09-6.53-48.46-5.63V12.5c0-.74-.33-1.27-.8-1.59.27-.54.3-1.2-.11-1.87C94.39,2.85,86.62-.65,78.33.1c-7.62.7-15,4.98-21.93,12.72-7.12,7.95-12.79,17.24-16.43,23.53-4.66,8.05-8.88,16.79-12.56,25.97-6.97,17.42-11.93,36.58-14.75,56.94-2.76,19.94-3.53,40.93-2.35,64.17.99,19.48,3.33,40.51,7.36,66.17.31,1.96.63,3.92.95,5.88-1.57-.04-3.14-.09-4.71-.12-2.76-.06-5.68-.02-8.4,1.15-2.5,1.07-4.57,3.42-5.26,5.98-.55,2.04-.2,3.98,1.01,5.61.33.45.79.73,1.31.82.33.22.73.34,1.17.33,19.72-.8,39.72-.58,59.44.64.05,0,.09,0,.14,0,.65,0,1.22-.29,1.56-.81.37-.55.42-1.29.18-1.94.76-.24,1.38-.9,1.32-1.93l-.39-6.47c-.07-1.14-.93-1.99-2.04-2.02l-41.16-1.11c-6.15-37.69-11.74-81.94-7.28-125.7,4.1-40.29,16.65-76.42,36.31-104.5,5.83-8.33,12.3-16.75,21.57-20.06,7.06-2.53,16.88-1.36,21.2,5.77.14.23.31.41.5.56-.1.24-.16.51-.16.81v17.76c-5.04.42-10.07,1.09-15.05,2.05-6.38,1.23-12.79,2.94-19.05,5.08-.52.18-.91.52-1.15.97-.19.05-.37.13-.53.23-.58.36-.9.99-.87,1.71l.92,27.05c-1.2,2.24-.91,5,.78,7.2ZM147.25,66.08c-.09-.01-.17-.04-.26-.04-.05,0-.11,0-.15,0,.03-.26.02-.53-.05-.79-.17-.69-.68-1.2-1.4-1.41-13.22-3.78-26.92-5.75-40.69-5.85-6.86-.06-13.77.36-20.54,1.24-3.47.45-6.86.99-10.09,1.63l-1.19.23c-2.68.51-5.44,1.05-8.01,2.01-.51.19-1.08.43-1.67.72l-.77-22.6c21.02-7.14,43.66-9.15,65.5-5.8,6.14.94,12.35,2.34,18.43,4.15l.9,26.51ZM63.35,68.63c.14-.15.3-.3.49-.44,1.58-1.2,3.66-1.68,5.68-2.14l.5-.11c10.88-2.55,22.15-3.83,33.53-3.83.48,0,.97,0,1.45,0,13.27.13,26.49,2.04,39.29,5.7.23.07.45.1.67.08-.02.38.06.78.24,1.13.33.67.97,1.08,1.74,1.13.11.06.2.61.07.89-.39.84-1.92,1.21-2.85,1.43-2.44.59-5,.98-7.47,1.36l-1.19.18c-5.92.93-12.03,1.63-18.14,2.09-12.07.9-24.3.86-36.36-.12-3.03-.25-6.1-.56-9.13-.93l-.92-.11c-2.46-.28-5.25-.59-7.05-2.17-.16-.14-.29-.29-.42-.44,0-.05.01-.09.01-.14l-.12-3.56ZM4.35,265.12c-.46-1.37.2-2.91,1.27-3.89,1.59-1.45,4.01-1.7,6.17-1.75,3.86-.09,7.82.07,11.65.22,1.78.07,3.55.14,5.32.19l33.26.9.27,4.5c0,.16.04.3.07.44-19.24-1.16-38.74-1.37-58-.61Z"/></g></svg>