<svg width="31" height="27" viewBox="0 0 31 27" fill="none" xmlns="http://www.w3.org/2000/svg">
<path fill-rule="evenodd" clip-rule="evenodd" d="M12.9445 3.69008C10.8205 3.02481 8.66498 2.34968 7.21964 0C6.99751 0.557965 6.78923 1.07379 6.59213 1.56195C6.18577 2.56836 5.82688 3.45719 5.49195 4.3553C4.61625 6.70432 5.03713 8.50743 7.23041 9.62671C9.33015 10.6986 11.5173 11.6001 13.7481 12.5196C14.7327 12.9254 15.7257 13.3347 16.7235 13.7638C16.8749 13.4048 17.0178 13.0753 17.1524 12.7647C17.4276 12.1302 17.6685 11.5746 17.8783 11.0073C18.052 10.5382 18.2993 10.0241 18.5477 9.50731C19.1441 8.2671 19.7477 7.0118 19.3597 6.3271C18.8905 5.49586 17.5854 5.13412 16.2848 4.77362C15.7363 4.62159 15.1887 4.46979 14.7048 4.28309C14.1313 4.06184 13.5391 3.87635 12.9445 3.69008ZM11.6471 18.4914C8.12119 18.3109 4.84797 17.4735 2.48279 14.1539C2.24313 14.7609 2.00539 15.3472 1.7728 15.9208C1.26482 17.1737 0.781425 18.3659 0.356338 19.5795C-0.501573 22.0282 0.185505 23.9892 2.46231 25.2739C3.55 25.9064 4.74244 26.3384 5.98287 26.5494C14.1185 27.7544 21.29 25.6823 27.3089 19.975C29.2989 18.0881 29.966 15.575 30.6406 13.0333C30.713 12.7606 30.7854 12.4876 30.8596 12.215C30.3351 12.4222 29.8555 12.7287 29.4472 13.1176C28.9822 13.5417 28.4945 13.9402 27.9862 14.3113C23.0306 17.6109 17.5167 18.7916 11.6471 18.4914Z" fill="#EFEEEC"/>
</svg>
