<?xml version="1.0" encoding="UTF-8"?>
<svg xmlns="http://www.w3.org/2000/svg" xmlns:xlink="http://www.w3.org/1999/xlink" id="Layer_1" data-name="Layer 1" viewBox="0 0 1770.98 626.44">
  <defs>
    <style>
      .cls-1 {
        clip-path: url(#clippath);
      }

      .cls-2 {
        fill: none;
      }

      .cls-2, .cls-3, .cls-4, .cls-5, .cls-6, .cls-7, .cls-8, .cls-9, .cls-10, .cls-11, .cls-12, .cls-13, .cls-14, .cls-15, .cls-16, .cls-17, .cls-18, .cls-19, .cls-20, .cls-21, .cls-22, .cls-23, .cls-24, .cls-25, .cls-26, .cls-27, .cls-28, .cls-29, .cls-30, .cls-31, .cls-32, .cls-33, .cls-34 {
        stroke-width: 0px;
      }

      .cls-3 {
        fill: url(#linear-gradient);
      }

      .cls-4 {
        fill: url(#linear-gradient-29);
      }

      .cls-5 {
        fill: url(#linear-gradient-30);
      }

      .cls-6 {
        fill: url(#linear-gradient-31);
      }

      .cls-7 {
        fill: url(#linear-gradient-28);
      }

      .cls-8 {
        fill: url(#linear-gradient-25);
      }

      .cls-9 {
        fill: url(#linear-gradient-11);
      }

      .cls-10 {
        fill: url(#linear-gradient-12);
      }

      .cls-11 {
        fill: url(#linear-gradient-13);
      }

      .cls-12 {
        fill: url(#linear-gradient-10);
      }

      .cls-13 {
        fill: url(#linear-gradient-17);
      }

      .cls-14 {
        fill: url(#linear-gradient-16);
      }

      .cls-15 {
        fill: url(#linear-gradient-19);
      }

      .cls-16 {
        fill: url(#linear-gradient-15);
      }

      .cls-17 {
        fill: url(#linear-gradient-23);
      }

      .cls-18 {
        fill: url(#linear-gradient-21);
      }

      .cls-19 {
        fill: url(#linear-gradient-18);
      }

      .cls-20 {
        fill: url(#linear-gradient-14);
      }

      .cls-21 {
        fill: url(#linear-gradient-22);
      }

      .cls-22 {
        fill: url(#linear-gradient-20);
      }

      .cls-23 {
        fill: url(#linear-gradient-27);
      }

      .cls-24 {
        fill: url(#linear-gradient-24);
      }

      .cls-25 {
        fill: url(#linear-gradient-26);
      }

      .cls-35 {
        clip-path: url(#clippath-1);
      }

      .cls-36 {
        clip-path: url(#clippath-4);
      }

      .cls-37 {
        clip-path: url(#clippath-3);
      }

      .cls-38 {
        clip-path: url(#clippath-2);
      }

      .cls-39 {
        clip-path: url(#clippath-7);
      }

      .cls-40 {
        clip-path: url(#clippath-8);
      }

      .cls-41 {
        clip-path: url(#clippath-6);
      }

      .cls-42 {
        clip-path: url(#clippath-5);
      }

      .cls-43 {
        clip-path: url(#clippath-9);
      }

      .cls-44 {
        clip-path: url(#clippath-20);
      }

      .cls-45 {
        clip-path: url(#clippath-21);
      }

      .cls-46 {
        clip-path: url(#clippath-24);
      }

      .cls-47 {
        clip-path: url(#clippath-23);
      }

      .cls-48 {
        clip-path: url(#clippath-22);
      }

      .cls-49 {
        clip-path: url(#clippath-25);
      }

      .cls-50 {
        clip-path: url(#clippath-27);
      }

      .cls-51 {
        clip-path: url(#clippath-28);
      }

      .cls-52 {
        clip-path: url(#clippath-26);
      }

      .cls-53 {
        clip-path: url(#clippath-29);
      }

      .cls-54 {
        clip-path: url(#clippath-30);
      }

      .cls-55 {
        clip-path: url(#clippath-14);
      }

      .cls-56 {
        clip-path: url(#clippath-13);
      }

      .cls-57 {
        clip-path: url(#clippath-12);
      }

      .cls-58 {
        clip-path: url(#clippath-10);
      }

      .cls-59 {
        clip-path: url(#clippath-15);
      }

      .cls-60 {
        clip-path: url(#clippath-17);
      }

      .cls-61 {
        clip-path: url(#clippath-16);
      }

      .cls-62 {
        clip-path: url(#clippath-19);
      }

      .cls-63 {
        clip-path: url(#clippath-11);
      }

      .cls-64 {
        clip-path: url(#clippath-18);
      }

      .cls-26 {
        fill: url(#linear-gradient-4);
      }

      .cls-27 {
        fill: url(#linear-gradient-2);
      }

      .cls-28 {
        fill: url(#linear-gradient-3);
      }

      .cls-29 {
        fill: url(#linear-gradient-8);
      }

      .cls-30 {
        fill: url(#linear-gradient-9);
      }

      .cls-31 {
        fill: url(#linear-gradient-7);
      }

      .cls-32 {
        fill: url(#linear-gradient-5);
      }

      .cls-33 {
        fill: url(#linear-gradient-6);
      }

      .cls-34 {
        fill: #263169;
      }
    </style>
    <clipPath id="clippath">
      <polygon class="cls-2" points="69.19 237.62 71.99 239.84 229.7 108.68 206.99 98.54 69.19 237.62"></polygon>
    </clipPath>
    <linearGradient id="linear-gradient" x1="-4630.44" y1="618.08" x2="-4621.19" y2="618.08" gradientTransform="translate(326495.57 306498.83) rotate(50.8) scale(95.89)" gradientUnits="userSpaceOnUse">
      <stop offset="0" stop-color="#4bad4b"></stop>
      <stop offset=".06" stop-color="#47ac51"></stop>
      <stop offset=".14" stop-color="#3ba962"></stop>
      <stop offset=".23" stop-color="#28a47f"></stop>
      <stop offset=".34" stop-color="#0d9da6"></stop>
      <stop offset=".38" stop-color="#009aba"></stop>
      <stop offset="1" stop-color="#253169"></stop>
    </linearGradient>
    <clipPath id="clippath-1">
      <polygon class="cls-2" points="229.7 108.68 380.2 176 433.08 169.6 240.65 99.71 229.7 108.68"></polygon>
    </clipPath>
    <linearGradient id="linear-gradient-2" x1="-4629.09" y1="613.47" x2="-4619.84" y2="613.47" gradientTransform="translate(299623.23 281586.6) rotate(50.8) scale(88.07)" gradientUnits="userSpaceOnUse">
      <stop offset="0" stop-color="#4bad4b"></stop>
      <stop offset=".06" stop-color="#47ac51"></stop>
      <stop offset=".14" stop-color="#3ba962"></stop>
      <stop offset=".23" stop-color="#28a47f"></stop>
      <stop offset=".33" stop-color="#0d9da6"></stop>
      <stop offset=".38" stop-color="#009aba"></stop>
      <stop offset="1" stop-color="#253169"></stop>
    </linearGradient>
    <clipPath id="clippath-2">
      <polygon class="cls-2" points="206.99 98.54 229.7 108.68 240.65 99.71 215.02 90.39 206.99 98.54"></polygon>
    </clipPath>
    <linearGradient id="linear-gradient-3" x1="-4629.09" y1="614.07" x2="-4619.84" y2="614.07" gradientTransform="translate(299618.36 281590.56) rotate(50.8) scale(88.07)" xlink:href="#linear-gradient-2"></linearGradient>
    <clipPath id="clippath-3">
      <polygon class="cls-2" points="256.72 190.91 260.45 206.17 298.43 204.66 281.07 188 256.72 190.91"></polygon>
    </clipPath>
    <linearGradient id="linear-gradient-4" x1="-4598.59" y1="661.86" x2="-4589.34" y2="661.86" gradientTransform="translate(283996.52 -190162.11) rotate(-25.66) scale(73.62)" gradientUnits="userSpaceOnUse">
      <stop offset="0" stop-color="#4bad4b"></stop>
      <stop offset=".4" stop-color="#009aba"></stop>
      <stop offset=".54" stop-color="#0884a9"></stop>
      <stop offset=".83" stop-color="#1c4c7e"></stop>
      <stop offset=".95" stop-color="#253169"></stop>
      <stop offset="1" stop-color="#253169"></stop>
    </linearGradient>
    <clipPath id="clippath-4">
      <polygon class="cls-2" points="304.25 185.21 324.17 203.61 432.26 199.3 380.2 176 304.25 185.21"></polygon>
    </clipPath>
    <linearGradient id="linear-gradient-5" x1="-4598.59" y1="662.26" x2="-4589.34" y2="662.26" gradientTransform="translate(283998.12 -190158.77) rotate(-25.66) scale(73.62)" xlink:href="#linear-gradient-4"></linearGradient>
    <clipPath id="clippath-5">
      <polygon class="cls-2" points="145.25 204.42 148.86 210.71 242.28 206.87 239.37 193.01 145.25 204.42"></polygon>
    </clipPath>
    <linearGradient id="linear-gradient-6" x1="-4598.59" y1="661.47" x2="-4589.34" y2="661.47" gradientTransform="translate(283995.15 -190164.95) rotate(-25.66) scale(73.62)" xlink:href="#linear-gradient-4"></linearGradient>
    <clipPath id="clippath-6">
      <polygon class="cls-2" points="380.2 176 432.26 199.3 433.08 169.6 380.2 176"></polygon>
    </clipPath>
    <linearGradient id="linear-gradient-7" x1="-4598.59" y1="662.4" x2="-4589.34" y2="662.4" gradientTransform="translate(283998.68 -190157.57) rotate(-25.66) scale(73.62)" xlink:href="#linear-gradient-4"></linearGradient>
    <clipPath id="clippath-7">
      <polygon class="cls-2" points="137.22 211.18 314.97 557.13 295.16 461.97 148.86 210.71 137.22 211.18"></polygon>
    </clipPath>
    <linearGradient id="linear-gradient-8" x1="-4599.77" y1="663.33" x2="-4590.52" y2="663.33" gradientTransform="translate(291407.22 -195076.79) rotate(-25.66) scale(75.52)" gradientUnits="userSpaceOnUse">
      <stop offset="0" stop-color="#4bad4b"></stop>
      <stop offset=".4" stop-color="#009aba"></stop>
      <stop offset=".44" stop-color="#0490b2"></stop>
      <stop offset=".7" stop-color="#165d8b"></stop>
      <stop offset=".89" stop-color="#213d72"></stop>
      <stop offset="1" stop-color="#253169"></stop>
    </linearGradient>
    <clipPath id="clippath-8">
      <polygon class="cls-2" points="137.22 211.18 148.86 210.71 145.25 204.42 137.22 211.18"></polygon>
    </clipPath>
    <linearGradient id="linear-gradient-9" x1="-4599.77" y1="661.03" x2="-4590.52" y2="661.03" gradientTransform="translate(291398.15 -195095.64) rotate(-25.66) scale(75.52)" xlink:href="#linear-gradient-8"></linearGradient>
    <clipPath id="clippath-9">
      <polygon class="cls-2" points="239.37 193.01 256.72 190.91 247.99 156.09 227.6 136.4 239.37 193.01"></polygon>
    </clipPath>
    <linearGradient id="linear-gradient-10" x1="-4636.77" y1="618.2" x2="-4627.53" y2="618.2" gradientTransform="translate(292746.17 392239.36) rotate(60.88) scale(104.65)" gradientUnits="userSpaceOnUse">
      <stop offset="0" stop-color="#009aba"></stop>
      <stop offset=".17" stop-color="#009aba"></stop>
      <stop offset=".31" stop-color="#0294b5"></stop>
      <stop offset=".49" stop-color="#0882a7"></stop>
      <stop offset=".7" stop-color="#136591"></stop>
      <stop offset=".94" stop-color="#213d72"></stop>
      <stop offset="1" stop-color="#253169"></stop>
    </linearGradient>
    <clipPath id="clippath-10">
      <polygon class="cls-2" points="242.28 206.87 295.16 461.97 345.6 548.51 260.45 206.17 242.28 206.87"></polygon>
    </clipPath>
    <linearGradient id="linear-gradient-11" x1="-4636.77" y1="618.71" x2="-4627.53" y2="618.71" gradientTransform="translate(292741.66 392241.89) rotate(60.88) scale(104.65)" xlink:href="#linear-gradient-10"></linearGradient>
    <clipPath id="clippath-11">
      <polygon class="cls-2" points="239.37 193.01 242.28 206.87 260.45 206.17 256.72 190.91 239.37 193.01"></polygon>
    </clipPath>
    <linearGradient id="linear-gradient-12" x1="-4636.77" y1="618.29" x2="-4627.53" y2="618.29" gradientTransform="translate(292745.53 392239.73) rotate(60.88) scale(104.65)" xlink:href="#linear-gradient-10"></linearGradient>
    <clipPath id="clippath-12">
      <polygon class="cls-2" points="314.97 557.13 345.6 548.51 295.16 461.97 314.97 557.13"></polygon>
    </clipPath>
    <linearGradient id="linear-gradient-13" x1="-4636.77" y1="619.04" x2="-4627.53" y2="619.04" gradientTransform="translate(292735.93 392245.08) rotate(60.88) scale(104.65)" xlink:href="#linear-gradient-10"></linearGradient>
    <clipPath id="clippath-13">
      <polygon class="cls-2" points="298.43 204.66 534.42 432.26 558.18 420.15 324.17 203.61 298.43 204.66"></polygon>
    </clipPath>
    <linearGradient id="linear-gradient-14" x1="-4665.46" y1="675.34" x2="-4656.21" y2="675.34" gradientTransform="translate(-493173.95 -269388.51) rotate(-143.11) scale(119.39)" gradientUnits="userSpaceOnUse">
      <stop offset="0" stop-color="#4bad4b"></stop>
      <stop offset=".34" stop-color="#009aba"></stop>
      <stop offset="1" stop-color="#253169"></stop>
    </linearGradient>
    <clipPath id="clippath-14">
      <polygon class="cls-2" points="247.99 156.09 281.07 188 304.25 185.21 240.65 126.27 247.99 156.09"></polygon>
    </clipPath>
    <linearGradient id="linear-gradient-15" x1="-4665.46" y1="675.61" x2="-4656.21" y2="675.61" gradientTransform="translate(-493172.17 -269390.88) rotate(-143.11) scale(119.39)" xlink:href="#linear-gradient-14"></linearGradient>
    <clipPath id="clippath-15">
      <polygon class="cls-2" points="545.48 442.98 560.62 457.54 588.81 448.57 568.66 429.93 545.48 442.98"></polygon>
    </clipPath>
    <linearGradient id="linear-gradient-16" x1="-4665.46" y1="675.22" x2="-4656.21" y2="675.22" gradientTransform="translate(-493175.2 -269386.82) rotate(-143.11) scale(119.39)" xlink:href="#linear-gradient-14"></linearGradient>
    <clipPath id="clippath-16">
      <polygon class="cls-2" points="281.07 188 298.43 204.66 324.17 203.61 304.25 185.21 281.07 188"></polygon>
    </clipPath>
    <linearGradient id="linear-gradient-17" x1="-4665.46" y1="675.52" x2="-4656.21" y2="675.52" gradientTransform="translate(-493172.54 -269390.35) rotate(-143.11) scale(119.39)" xlink:href="#linear-gradient-14"></linearGradient>
    <clipPath id="clippath-17">
      <polygon class="cls-2" points="227.6 136.4 247.99 156.09 240.65 126.27 227.6 136.4"></polygon>
    </clipPath>
    <linearGradient id="linear-gradient-18" x1="-4665.46" y1="675.54" x2="-4656.21" y2="675.54" gradientTransform="translate(-493171.98 -269391.1) rotate(-143.11) scale(119.39)" xlink:href="#linear-gradient-14"></linearGradient>
    <clipPath id="clippath-18">
      <polygon class="cls-2" points="465.69 487.59 370.99 540.59 584.74 480.84 560.62 457.54 465.69 487.59"></polygon>
    </clipPath>
    <linearGradient id="linear-gradient-19" x1="-4690.52" y1="640.65" x2="-4681.27" y2="640.65" gradientTransform="translate(-324731.88 192594.15) rotate(157.21) scale(79.83)" gradientUnits="userSpaceOnUse">
      <stop offset="0" stop-color="#4bad4b"></stop>
      <stop offset=".22" stop-color="#009aba"></stop>
      <stop offset="1" stop-color="#253169"></stop>
    </linearGradient>
    <clipPath id="clippath-19">
      <polygon class="cls-2" points="560.62 457.54 584.74 480.84 588.81 448.57 560.62 457.54"></polygon>
    </clipPath>
    <linearGradient id="linear-gradient-20" x1="-4690.52" y1="640.58" x2="-4681.27" y2="640.58" gradientTransform="translate(-324731.7 192594.6) rotate(157.21) scale(79.83)" xlink:href="#linear-gradient-19"></linearGradient>
    <clipPath id="clippath-20">
      <polygon class="cls-2" points="359.81 521.14 465.69 487.59 545.48 442.98 534.42 432.26 359.81 521.14"></polygon>
    </clipPath>
    <linearGradient id="linear-gradient-21" x1="-4684.14" y1="642.52" x2="-4674.89" y2="642.52" gradientTransform="translate(-378406.22 224561.06) rotate(157.21) scale(93.16)" gradientUnits="userSpaceOnUse">
      <stop offset="0" stop-color="#4bad4b"></stop>
      <stop offset=".26" stop-color="#009aba"></stop>
      <stop offset=".46" stop-color="#0d749d"></stop>
      <stop offset=".69" stop-color="#1a5081"></stop>
      <stop offset=".88" stop-color="#22396f"></stop>
      <stop offset="1" stop-color="#253169"></stop>
    </linearGradient>
    <clipPath id="clippath-21">
      <polygon class="cls-2" points="558.18 420.15 568.66 429.93 585.09 420.73 578.45 409.9 558.18 420.15"></polygon>
    </clipPath>
    <linearGradient id="linear-gradient-22" x1="-4684.14" y1="642.57" x2="-4674.89" y2="642.57" gradientTransform="translate(-378406.6 224560.22) rotate(157.21) scale(93.16)" xlink:href="#linear-gradient-21"></linearGradient>
    <clipPath id="clippath-22">
      <polygon class="cls-2" points="596.97 400.46 603.96 410.13 655.91 381.13 662.66 367.03 596.97 400.46"></polygon>
    </clipPath>
    <linearGradient id="linear-gradient-23" x1="-4684.14" y1="642.64" x2="-4674.89" y2="642.64" gradientTransform="translate(-378406.82 224559.65) rotate(157.21) scale(93.16)" xlink:href="#linear-gradient-21"></linearGradient>
    <clipPath id="clippath-23">
      <polygon class="cls-2" points="534.42 432.26 545.48 442.98 568.66 429.93 558.18 420.15 534.42 432.26"></polygon>
    </clipPath>
    <linearGradient id="linear-gradient-24" x1="-4684.14" y1="642.55" x2="-4674.89" y2="642.55" gradientTransform="translate(-378406.5 224560.45) rotate(157.21) scale(93.16)" xlink:href="#linear-gradient-21"></linearGradient>
    <clipPath id="clippath-24">
      <polygon class="cls-2" points="359.81 521.14 370.99 540.59 465.69 487.59 359.81 521.14"></polygon>
    </clipPath>
    <linearGradient id="linear-gradient-25" x1="-4684.14" y1="642.33" x2="-4674.89" y2="642.33" gradientTransform="translate(-378405.69 224562.38) rotate(157.21) scale(93.16)" xlink:href="#linear-gradient-21"></linearGradient>
    <clipPath id="clippath-25">
      <polygon class="cls-2" points="655.91 381.13 626.67 442.16 648.34 472.56 670 373.21 655.91 381.13"></polygon>
    </clipPath>
    <linearGradient id="linear-gradient-26" x1="-4680.2" y1="643.17" x2="-4670.95" y2="643.17" gradientTransform="translate(-417775.39 248013.91) rotate(157.21) scale(102.93)" gradientUnits="userSpaceOnUse">
      <stop offset="0" stop-color="#4bad4b"></stop>
      <stop offset=".34" stop-color="#009aba"></stop>
      <stop offset="1" stop-color="#253169"></stop>
    </linearGradient>
    <clipPath id="clippath-26">
      <polygon class="cls-2" points="655.91 381.13 670 373.21 662.66 367.03 655.91 381.13"></polygon>
    </clipPath>
    <linearGradient id="linear-gradient-27" x1="-4680.2" y1="643.5" x2="-4670.95" y2="643.5" gradientTransform="translate(-417777.3 248009.42) rotate(157.21) scale(102.93)" xlink:href="#linear-gradient-26"></linearGradient>
    <clipPath id="clippath-27">
      <polygon class="cls-2" points="585.09 420.73 614.09 468.37 626.67 442.16 603.96 410.13 585.09 420.73"></polygon>
    </clipPath>
    <linearGradient id="linear-gradient-28" x1="-4680.58" y1="643.08" x2="-4671.33" y2="643.08" gradientTransform="translate(-413281.84 245336.72) rotate(157.21) scale(101.82)" gradientUnits="userSpaceOnUse">
      <stop offset="0" stop-color="#4bad4b"></stop>
      <stop offset=".31" stop-color="#009aba"></stop>
      <stop offset="1" stop-color="#253169"></stop>
    </linearGradient>
    <clipPath id="clippath-28">
      <polygon class="cls-2" points="459.64 215.37 578.45 409.9 596.97 400.46 463.6 212.81 459.64 215.37"></polygon>
    </clipPath>
    <linearGradient id="linear-gradient-29" x1="-4680.58" y1="644.37" x2="-4671.33" y2="644.37" gradientTransform="translate(-413288.22 245321.56) rotate(157.21) scale(101.82)" xlink:href="#linear-gradient-28"></linearGradient>
    <clipPath id="clippath-29">
      <polygon class="cls-2" points="578.45 409.9 585.09 420.73 603.96 410.13 596.97 400.46 578.45 409.9"></polygon>
    </clipPath>
    <linearGradient id="linear-gradient-30" x1="-4680.58" y1="643.36" x2="-4671.33" y2="643.36" gradientTransform="translate(-413283.25 245333.39) rotate(157.21) scale(101.82)" xlink:href="#linear-gradient-28"></linearGradient>
    <clipPath id="clippath-30">
      <polygon class="cls-2" points="614.09 468.37 648.34 472.56 626.67 442.16 614.09 468.37"></polygon>
    </clipPath>
    <linearGradient id="linear-gradient-31" x1="-4680.58" y1="642.85" x2="-4671.33" y2="642.85" gradientTransform="translate(-413280.69 245339.48) rotate(157.21) scale(101.82)" xlink:href="#linear-gradient-28"></linearGradient>
  </defs>
  <path class="cls-34" d="M448.1,412.58h-2.33c-16.31,0-29.12,6.99-41.7,16.66-1.86-11.3-2.45-22.13-2.45-31.68,0-10.95.82-20.03,1.4-25.98,4.78,3.03,6.17,9.09,6.17,14.56,0,4.31-.82,8.39-1.51,10.25,4.89-5.82,6.41-12,6.41-17.24,0-6.06-1.98-10.95-3.15-12.93,7.8,6.29,8.97,14.21,8.97,20.15,0,1.4-.12,2.56-.12,3.73,1.51-3.03,2.68-6.99,2.68-11.3,0-6.41-2.45-13.51-9.55-19.8,10.6,2.56,14.91,12.58,15.03,20.15,0,.12,0,.23.23.35.7-2.56.93-4.89.93-6.99,0-2.56-.47-4.89-1.16-6.87-3.15-8.27-11.42-11.88-15.49-12.46,1.05-.12,1.98-.12,2.91-.12,6.17,0,10.25,2.1,12.58,4.19,1.75,1.51,2.56,2.91,3.15,3.61-.35-3.03-1.51-5.47-3.15-7.57-3.38-3.96-8.62-5.82-13.51-5.82-2.1,0-4.08.35-5.71,1.05,2.45-3.61,6.64-5.01,10.37-5.01,1.75,0,3.38.35,4.66.82-2.8-3.26-6.52-4.89-10.25-4.89-3.96,0-7.8,1.86-10.48,5.94-.58-.93-1.05-2.1-1.63-3.26-.93-1.98-1.51-4.31-1.98-6.52,0-.23-.23-.35-.47-.35s-.35.12-.47.35c-.47,2.21-1.05,4.54-1.98,6.52-.47,1.16-1.05,2.21-1.75,3.26-2.56-3.96-6.41-5.94-10.25-5.94s-7.34,1.75-10.25,5.01c1.28-.58,2.91-.93,4.66-.93,3.61,0,7.69,1.51,10.13,5.13-1.75-.7-3.73-1.05-5.82-1.05-4.78,0-10.02,1.98-13.28,5.82-1.75,1.98-2.91,4.54-3.03,7.69.47-.82,1.4-2.21,3.03-3.73,2.33-2.1,6.17-4.08,12.11-4.08,1.05,0,2.1.12,3.38.23-4.08.47-12.35,4.08-15.49,12.35-.7,1.98-1.16,4.19-1.16,6.64,0,2.21.35,4.54,1.16,7.22v-.35c.12-7.45,4.43-17.59,15.14-20.03-7.11,6.29-9.67,13.28-9.67,19.69,0,4.31,1.16,8.27,2.8,11.3-.12-1.28-.23-2.68-.23-4.19,0-5.82,1.4-13.4,8.97-19.45-1.16,1.86-3.26,6.76-3.26,12.81,0,5.24,1.51,11.42,6.52,17.24-.82-1.86-1.75-5.94-1.75-10.25,0-5.47,1.4-11.42,6.29-14.44.47,5.82,1.16,14.79,1.16,25.63,0,9.67-.58,20.62-2.56,32.03-12.58-9.67-25.39-16.66-41.58-16.66h-2.33c-8.62.35-16.77,2.8-22.83,6.29-.12,0-.12.12-.12.12,0,.12.12.23.23.23h.12c5.71-1.75,11.65-2.8,17.59-2.8,1.63,0,3.38.12,5.01.23,7.11.7,13.86,2.68,20.15,5.47,8.74,3.96,16.77,9.67,23.88,15.72-4.43,3.84-19.8,18.29-24.81,20.85-1.05-1.4-2.68-2.33-4.54-2.33-.35,0-.82,0-1.28.12-2.1.47-3.73,2.1-4.19,4.19-.12.47-.12.93-.12,1.4,0,1.4.47,2.68,1.28,3.49,1.63,1.63,3.49,2.45,5.47,2.45,1.28,0,2.8-.35,4.19-.93,6.99-2.91,15.84-12.23,26.56-22.02.93-.82,1.86-1.63,2.8-2.45,1.05.93,1.86,1.75,2.8,2.45,10.83,9.78,19.57,19.1,26.56,22.02,1.51.58,2.91.93,4.19.93,1.98,0,3.73-.7,5.47-2.45.82-.82,1.28-2.1,1.28-3.49,0-.47,0-.93-.12-1.4-.47-2.1-2.21-3.73-4.19-4.19-.47-.12-.82-.12-1.28-.12-1.86,0-3.49.93-4.54,2.33-4.89-2.45-20.38-17.12-24.81-20.85,7.22-6.06,15.14-11.65,23.88-15.72,6.29-2.91,12.93-4.89,20.15-5.47,1.63-.12,3.38-.23,5.01-.23,5.94,0,11.88.93,17.59,2.8h0c.12,0,.23-.12.23-.23s0-.12-.12-.12c-6.17-3.96-14.33-6.41-22.83-6.76"></path>
  <g class="cls-1">
    <polygon class="cls-3" points="165.64 19.92 298.89 183.34 133.25 318.46 0 154.92 165.64 19.92"></polygon>
  </g>
  <g class="cls-35">
    <polygon class="cls-27" points="351.89 0 470.47 145.49 311.01 275.59 192.31 130.11 351.89 0"></polygon>
  </g>
  <g class="cls-38">
    <polygon class="cls-28" points="227.14 73.97 249.62 101.34 220.38 125.1 198.02 97.73 227.14 73.97"></polygon>
  </g>
  <g class="cls-37">
    <polygon class="cls-26" points="249.62 191.38 290.62 171.69 305.53 202.79 264.53 222.48 249.62 191.38"></polygon>
  </g>
  <g class="cls-36">
    <polygon class="cls-32" points="293.42 181.13 408.27 126.03 443.1 198.48 328.24 253.58 293.42 181.13"></polygon>
  </g>
  <g class="cls-42">
    <polygon class="cls-33" points="138.38 196.39 224.11 155.15 249.15 207.34 163.42 248.57 138.38 196.39"></polygon>
  </g>
  <g class="cls-41">
    <polygon class="cls-31" points="368.55 175.07 423.18 148.86 444.73 193.71 390.1 219.92 368.55 175.07"></polygon>
  </g>
  <g class="cls-39">
    <polygon class="cls-29" points="1.98 275.59 281.65 141.29 450.2 492.13 170.53 626.44 1.98 275.59"></polygon>
  </g>
  <g class="cls-40">
    <polygon class="cls-30" points="134.65 205.71 146.65 199.88 151.43 209.9 139.43 215.72 134.65 205.71"></polygon>
  </g>
  <g class="cls-43">
    <polygon class="cls-12" points="249.85 124.05 280.72 179.61 234.48 205.47 203.49 149.8 249.85 124.05"></polygon>
  </g>
  <g class="cls-58">
    <polygon class="cls-9" points="321.14 162.26 491.09 467.32 266.74 592.42 96.8 287.24 321.14 162.26"></polygon>
  </g>
  <g class="cls-63">
    <polygon class="cls-10" points="255.44 181.94 267.32 203.14 244.38 215.96 232.61 194.76 255.44 181.94"></polygon>
  </g>
  <g class="cls-57">
    <polygon class="cls-11" points="333.6 440.53 386.02 534.53 307.16 578.56 254.74 484.45 333.6 440.53"></polygon>
  </g>
  <g class="cls-56">
    <polygon class="cls-20" points="464.53 557.01 188.58 349.91 391.96 78.97 667.9 286.08 464.53 557.01"></polygon>
  </g>
  <g class="cls-55">
    <polygon class="cls-16" points="281.3 218.52 211.06 165.75 263.6 95.75 333.84 148.51 281.3 218.52"></polygon>
  </g>
  <g class="cls-59">
    <polygon class="cls-14" points="573.2 478.39 532.2 447.64 561.09 409.08 602.09 439.95 573.2 478.39"></polygon>
  </g>
  <g class="cls-61">
    <polygon class="cls-13" points="308.68 225.39 271.75 197.67 296.56 164.47 333.49 192.19 308.68 225.39"></polygon>
  </g>
  <g class="cls-60">
    <polygon class="cls-19" points="240.65 165.87 213.28 145.37 234.94 116.48 262.32 137.1 240.65 165.87"></polygon>
  </g>
  <g class="cls-64">
    <polygon class="cls-15" points="614.32 528.13 403.14 616.89 341.41 470 552.7 381.24 614.32 528.13"></polygon>
  </g>
  <g class="cls-62">
    <polygon class="cls-22" points="600.34 475.94 564.82 490.85 549.09 453.46 584.62 438.55 600.34 475.94"></polygon>
  </g>
  <g class="cls-44">
    <polygon class="cls-18" points="577.17 507.86 387.65 587.42 328.01 445.66 517.64 365.98 577.17 507.86"></polygon>
  </g>
  <g class="cls-45">
    <polygon class="cls-21" points="592.19 426.9 562.14 439.6 550.96 412.93 581.01 400.23 592.19 426.9"></polygon>
  </g>
  <g class="cls-48">
    <polygon class="cls-17" points="678.04 403.72 606.87 433.66 581.59 373.44 652.76 343.62 678.04 403.72"></polygon>
  </g>
  <g class="cls-47">
    <polygon class="cls-24" points="576.82 439.48 539.54 455.21 526.26 423.64 563.54 407.92 576.82 439.48"></polygon>
  </g>
  <g class="cls-46">
    <polygon class="cls-8" points="484.56 532.67 375.65 578.45 340.82 495.51 449.85 449.73 484.56 532.67"></polygon>
  </g>
  <g class="cls-49">
    <polygon class="cls-25" points="705.53 457.66 633.19 488.06 591.26 388.12 663.48 357.71 705.53 457.66"></polygon>
  </g>
  <g class="cls-52">
    <polygon class="cls-23" points="675.01 379.03 658 386.14 650.9 369.13 667.9 362.02 675.01 379.03"></polygon>
  </g>
  <g class="cls-50">
    <polygon class="cls-7" points="647.52 459.64 591.26 483.28 564.24 418.87 620.5 395.34 647.52 459.64"></polygon>
  </g>
  <g class="cls-51">
    <polygon class="cls-4" points="667.44 380.31 480.25 458.94 389.28 242.4 576.47 163.77 667.44 380.31"></polygon>
  </g>
  <g class="cls-53">
    <polygon class="cls-5" points="611.29 417.7 582.29 429.93 571.11 403.49 600.11 391.26 611.29 417.7"></polygon>
  </g>
  <g class="cls-54">
    <polygon class="cls-6" points="659.17 468.02 619.21 484.8 603.26 446.71 643.21 429.93 659.17 468.02"></polygon>
  </g>
  <path class="cls-34" d="M778.33,389.4h5.36v46.13h-5.36v-46.13ZM848.1,435.64h5.36v-46.13h-5.36v46.13ZM1474.77,435.64h5.36v-46.13h-5.36v46.13ZM1622.24,389.4h-5.36v46.13h5.36v-46.13ZM878.85,414.09v-5.94c-4.89-1.4-8.62-3.03-8.62-6.99s3.49-6.99,8.62-7.34v-5.01c-8.39.47-14.33,5.59-14.33,12.58,0,8.5,7.45,10.83,14.33,12.7M881.88,393.94c4.08.47,7.57,2.21,10.02,5.13l.58.7,3.61-3.96-.47-.58c-3.38-3.84-8.15-5.94-13.74-6.41v5.13h0ZM878.85,431.21c-5.94-.58-9.9-3.96-11.76-6.06l-.58-.7-3.49,4.08.47.47c3.61,4.43,9.09,6.87,15.49,7.22v-5.01h-.12ZM881.88,409.08v5.94c5.36,1.63,9.43,3.38,9.43,8.27,0,3.61-2.56,7.57-9.43,8.04v5.01c10.95-.58,15.03-7.22,15.03-13.4,0-9.43-8.15-12-15.03-13.86M952.35,389.4h-5.36v46.13h5.36v-46.13ZM955.5,394.52h8.62c5.47,0,9.09,3.49,9.09,8.74s-3.61,8.74-9.09,8.74h-8.62v4.89h11.53c7.11-1.05,11.88-6.17,11.88-13.63,0-8.27-5.82-13.86-14.33-13.86h-8.97v5.13h-.12ZM969.36,420.03h-6.52l10.37,15.61h6.87l-10.72-15.61ZM988.69,389.4h-6.52l18.4,26.56v19.57h5.47v-20.73l-17.36-25.39ZM1008.38,412.69l16.07-23.3h-6.52l-12.7,18.64,3.14,4.66ZM747.69,427.95l15.72-38.44h-5.59l-12.93,31.8,2.8,6.64ZM728.47,389.4h-5.47l18.99,46.13h5.47l-18.99-46.13ZM761.32,402.79v32.85h5.47v-46.13h0l-5.47,13.28ZM719.62,389.4h0v46.13h5.36v-33.08l-5.36-13.05ZM1288.4,427.95l11.65-28.42,4.08-10.02h-5.47l-12.93,31.8,2.68,6.64ZM1302.15,402.79v32.85h5.47v-46.13h0l-5.47,13.28ZM1269.18,389.4h-5.47l18.75,45.66.23.47h5.47l-18.99-46.13ZM1260.33,389.4h0v46.13h5.36v-33.08l-5.36-13.05ZM1326.14,389.4h-5.47l.35.7,18.52,44.96.23.47h5.47l-19.1-46.13ZM1345.36,427.95l11.65-28.42,4.08-10.02h-5.47l-12.93,31.8,2.68,6.64ZM1358.99,402.79v32.85h5.47v-46.13h0l-5.47,13.28ZM1317.29,389.4h0v46.13h5.36v-33.08l-5.36-13.05ZM915.08,389.4h-11.65v5.01h11.65v-5.01ZM926.73,394.52h11.42v-5.01h-11.42v5.01ZM918.22,435.64h5.24v-46.13h-5.24v46.13ZM1070.23,431.21c-8.97-.93-14.91-8.27-14.91-18.64s5.94-17.71,14.91-18.64v-5.01c-12.11.93-20.5,10.48-20.5,23.65s8.39,22.71,20.5,23.65v-5.01ZM1073.38,388.81v5.01c9.43.58,15.72,8.04,15.72,18.75s-6.29,18.17-15.72,18.75v5.01c12.58-.58,21.32-10.25,21.32-23.76-.12-13.51-8.85-23.18-21.32-23.76M1112.28,394.52h21.32v-5.01h-21.32v5.01ZM1109.14,389.4h-5.36v46.13h5.36v-46.13ZM1112.28,414.44h20.85v-5.01h-20.85v5.01ZM1197.2,424.57l-.47.58c-2.56,3.61-6.99,5.82-11.65,6.06v5.01c6.52-.23,11.76-2.91,16.19-8.15l.58-.7-4.66-2.8ZM1185.2,393.82c4.66.23,9.09,2.56,11.65,6.06l.47.58,4.54-2.91-.58-.7c-4.08-5.13-9.55-7.8-16.07-8.15v5.13ZM1182.05,431.21c-9.09-1.16-15.49-8.62-15.49-18.64s6.29-17.47,15.49-18.64v-5.13c-12.46,1.16-21.08,10.83-21.08,23.65s8.62,22.6,21.08,23.65v-4.89ZM1229.23,431.33c-8.97-.93-14.91-8.27-14.91-18.64s5.94-17.71,14.91-18.64v-5.01c-12.11.93-20.5,10.48-20.5,23.65s8.39,22.71,20.5,23.65v-5.01ZM1232.37,388.93v5.01c9.43.58,15.72,8.04,15.72,18.75s-6.29,18.17-15.72,18.75v5.01c12.58-.58,21.32-10.25,21.32-23.76-.12-13.51-8.85-23.3-21.32-23.76M1653.22,431.33c-8.97-.93-14.91-8.27-14.91-18.64s5.94-17.71,14.91-18.64v-5.01c-12.11.93-20.5,10.48-20.5,23.65s8.39,22.71,20.5,23.65v-5.01ZM1656.37,388.93v5.01c9.43.58,15.72,8.04,15.72,18.75s-6.29,18.17-15.72,18.75v5.01c12.46-.58,21.32-10.25,21.32-23.76s-8.74-23.3-21.32-23.76M1393.47,430.98c-7.22-.58-11.18-5.24-11.18-13.28v-28.19h-5.47v28.3c0,11.3,6.06,18.05,16.66,18.64v-5.47h0ZM1407.68,389.4v28.19c0,8.04-3.96,12.7-11.07,13.28v5.36c10.48-.58,16.54-7.34,16.54-18.64v-28.3h-5.47v.12ZM1511.7,431.21c-9.09-1.16-15.49-8.62-15.49-18.64s6.29-17.47,15.49-18.64v-5.13c-12.46,1.16-21.08,10.83-21.08,23.65s8.62,22.6,21.08,23.65v-4.89ZM1514.84,393.82c4.66.23,9.09,2.56,11.65,6.06l.47.58,4.54-2.91-.58-.7c-4.08-5.13-9.55-7.8-16.07-8.15v5.13ZM1526.84,424.57l-.47.58c-2.56,3.61-6.99,5.82-11.65,6.06v5.01c6.52-.23,11.76-2.91,16.07-8.15l.58-.7-4.54-2.8ZM802.67,389.4h-6.64l32.61,46.13h7.11l-33.08-46.13ZM834.71,428.88v-39.37h-5.36v31.92l5.36,7.45ZM796.97,396.27v39.37h5.36v-31.68l-5.36-7.69ZM1584.73,389.51h-11.53v5.01h11.53v-5.01ZM1593.23,389.51h-5.36v46.13h5.36v-46.13ZM1596.38,394.52h11.42v-5.01h-11.42v5.01ZM1462.66,429v-39.6h-5.36v32.15l5.36,7.45ZM1430.39,389.4h-6.41l32.61,46.13h6.99l-33.2-46.13ZM1424.92,396.15v39.37h5.36v-31.8l-5.36-7.57ZM1693.41,389.4h-6.52l32.61,46.13h6.99l-33.08-46.13ZM1725.56,428.88v-39.49h-5.36v32.03l5.36,7.45ZM1687.82,396.15v39.37h5.36v-31.8l-5.36-7.57ZM1562.02,418.4h-11.07l-2.1,5.24h15.26l-2.1-5.24ZM1561.08,393.01l-2.91,7.22,14.09,35.29h6.06l-17.24-42.52ZM1559.22,389.4h-5.59l-18.4,45.08-.47,1.05h6.06l18.4-46.13Z"></path>
  <path class="cls-34" d="M1749.9,414.09v-5.94c-4.89-1.4-8.62-3.03-8.62-6.99s3.49-6.99,8.62-7.34v-5.01c-8.39.47-14.33,5.59-14.33,12.58,0,8.5,7.45,10.83,14.33,12.7"></path>
  <path class="cls-34" d="M1753.04,393.94c4.08.47,7.57,2.21,10.02,5.13l.58.7,3.61-3.96-.47-.58c-3.38-3.84-8.15-5.94-13.74-6.41v5.13h0Z"></path>
  <path class="cls-34" d="M1749.9,431.21c-5.94-.58-9.9-3.96-11.76-6.06l-.58-.7-3.49,4.08.47.47c3.61,4.43,9.09,6.87,15.49,7.22v-5.01h-.12Z"></path>
  <path class="cls-34" d="M1753.04,409.08v5.94c5.36,1.63,9.43,3.38,9.43,8.27,0,3.61-2.56,7.57-9.43,8.04v5.01c10.95-.58,15.03-7.22,15.03-13.4-.12-9.43-8.27-12-15.03-13.86"></path>
  <rect class="cls-34" x="877.34" y="464.88" width="5.36" height="46.13"></rect>
  <rect class="cls-34" x="1201.97" y="464.88" width="5.36" height="46.13"></rect>
  <polygon class="cls-34" points="1735.22 464.88 1728.7 464.88 1746.99 491.43 1746.99 511 1752.46 511 1752.46 490.27 1735.22 464.88"></polygon>
  <polygon class="cls-34" points="1754.68 488.17 1770.98 464.88 1764.46 464.88 1751.53 483.51 1754.68 488.17"></polygon>
  <polygon class="cls-34" points="1078.97 464.88 1073.49 464.88 1073.84 465.58 1092.25 510.54 1092.48 511 1097.95 511 1078.97 464.88"></polygon>
  <polygon class="cls-34" points="1098.19 503.32 1109.83 474.89 1113.79 464.88 1108.32 464.88 1095.39 496.68 1098.19 503.32"></polygon>
  <polygon class="cls-34" points="1070.11 464.88 1070.11 464.88 1070.11 511 1075.47 511 1075.47 477.92 1070.11 464.88"></polygon>
  <polygon class="cls-34" points="1111.81 478.16 1111.81 511 1117.17 511 1117.17 464.88 1117.17 464.88 1111.81 478.16"></polygon>
  <rect class="cls-34" x="1174.71" y="464.88" width="5.36" height="46.13"></rect>
  <rect class="cls-34" x="1183.22" y="464.88" width="11.42" height="5.01"></rect>
  <rect class="cls-34" x="1160.04" y="464.88" width="11.53" height="5.01"></rect>
  <path class="cls-34" d="M997.78,506.58c-8.97-.93-14.91-8.27-14.91-18.64s5.94-17.71,14.91-18.64v-5.01c-12.11.93-20.5,10.48-20.5,23.65s8.39,22.71,20.5,23.65v-5.01Z"></path>
  <path class="cls-34" d="M1000.92,464.18v5.01c9.43.58,15.72,8.04,15.72,18.75s-6.29,18.17-15.72,18.75v5.01c12.58-.58,21.32-10.25,21.32-23.76,0-13.4-8.74-23.18-21.32-23.76"></path>
  <path class="cls-34" d="M1236.68,506.58c-8.97-.93-14.91-8.27-14.91-18.64s5.94-17.71,14.91-18.64v-5.01c-12.11.93-20.5,10.48-20.5,23.65s8.39,22.71,20.5,23.65v-5.01Z"></path>
  <path class="cls-34" d="M1239.83,464.18v5.01c9.43.58,15.72,8.04,15.72,18.75s-6.29,18.17-15.72,18.75v5.01c12.58-.58,21.32-10.25,21.32-23.76-.12-13.4-8.85-23.18-21.32-23.76"></path>
  <rect class="cls-34" x="1381.59" y="484.91" width="20.97" height="5.01"></rect>
  <rect class="cls-34" x="1381.59" y="506" width="21.43" height="5.01"></rect>
  <polygon class="cls-34" points="742.8 468.37 739.89 475.71 753.87 511 759.92 511 742.8 468.37"></polygon>
  <polygon class="cls-34" points="743.62 493.76 732.55 493.76 730.45 499.12 745.71 499.12 743.62 493.76"></polygon>
  <polygon class="cls-34" points="740.82 464.88 735.23 464.88 716.83 509.96 716.36 511 722.3 511 740.82 464.88"></polygon>
  <polygon class="cls-34" points="802.91 504.36 802.91 464.88 797.55 464.88 797.55 496.91 802.91 504.36"></polygon>
  <polygon class="cls-34" points="770.76 464.88 764.23 464.88 796.85 511 803.84 511 770.76 464.88"></polygon>
  <polygon class="cls-34" points="765.17 471.63 765.17 511 770.52 511 770.52 479.2 765.17 471.63"></polygon>
  <polygon class="cls-34" points="1269.53 471.75 1269.53 511 1274.89 511 1274.89 479.44 1269.53 471.75"></polygon>
  <polygon class="cls-34" points="1307.27 504.48 1307.27 464.88 1301.91 464.88 1301.91 496.91 1307.27 504.48"></polygon>
  <polygon class="cls-34" points="1301.1 511 1308.2 511 1275.12 464.88 1268.48 464.88 1300.86 510.65 1301.1 511"></polygon>
  <polygon class="cls-34" points="1543.26 504.36 1543.26 464.88 1537.79 464.88 1537.79 496.91 1543.26 504.36"></polygon>
  <polygon class="cls-34" points="1511.11 464.88 1504.59 464.88 1536.97 511 1544.08 511 1511.11 464.88"></polygon>
  <polygon class="cls-34" points="1505.41 471.75 1505.41 511 1510.76 511 1510.76 479.32 1505.41 471.75"></polygon>
  <polygon class="cls-34" points="930.69 504.25 930.69 464.88 925.21 464.88 925.21 496.79 930.69 504.25"></polygon>
  <polygon class="cls-34" points="892.83 471.87 892.83 511 898.3 511 898.3 479.44 892.83 471.87"></polygon>
  <polygon class="cls-34" points="924.4 511 931.62 511 898.54 464.88 891.78 464.88 924.16 510.65 924.4 511"></polygon>
  <rect class="cls-34" x="813.39" y="464.88" width="5.36" height="46.13"></rect>
  <path class="cls-34" d="M828.42,464.88h-6.52v5.01h6.52c10.6,0,17.71,7.11,17.71,17.59,0,11.18-6.99,18.52-17.71,18.52h-6.52v5.01h6.52c13.98,0,23.3-9.43,23.3-23.53s-9.43-22.6-23.3-22.6"></path>
  <rect class="cls-34" x="941.05" y="464.88" width="5.36" height="46.13"></rect>
  <rect class="cls-34" x="949.44" y="464.88" width="21.43" height="5.01"></rect>
  <rect class="cls-34" x="949.44" y="484.91" width="20.97" height="5.01"></rect>
  <path class="cls-34" d="M1038.08,469.89h8.62c5.47,0,9.09,3.49,9.09,8.74s-3.61,8.74-9.09,8.74h-8.62v4.89h11.53c7.11-1.05,11.76-6.17,11.76-13.63,0-8.27-5.71-13.86-14.33-13.86h-8.97v5.13Z"></path>
  <polygon class="cls-34" points="1051.94 495.4 1045.42 495.4 1055.79 511 1062.66 511 1051.94 495.4"></polygon>
  <rect class="cls-34" x="1029.58" y="464.88" width="5.36" height="46.13"></rect>
  <polygon class="cls-34" points="1150.72 493.76 1139.54 493.76 1137.44 499.12 1152.82 499.12 1150.72 493.76"></polygon>
  <polygon class="cls-34" points="1149.67 468.37 1146.88 475.59 1160.97 511 1166.91 511 1149.67 468.37"></polygon>
  <polygon class="cls-34" points="1147.69 464.88 1142.22 464.88 1123.7 509.96 1122.76 511 1129.29 511 1147.69 464.88"></polygon>
  <polygon class="cls-34" points="1486.54 489.92 1486.54 484.91 1463.01 484.91 1463.01 464.88 1457.65 464.88 1457.65 489.92 1486.54 489.92"></polygon>
  <rect class="cls-34" x="1457.65" y="493.07" width="5.36" height="18.05"></rect>
  <path class="cls-34" d="M1708.67,469.19c4.66.23,9.2,2.45,11.76,6.06l.47.58,4.54-2.91-.58-.7c-4.08-5.13-9.67-7.92-16.31-8.15v5.13h.12Z"></path>
  <polygon class="cls-34" points="1705.64 491.55 1725.79 491.55 1725.79 491.55 1725.79 486.78 1705.64 486.78 1705.64 491.55"></polygon>
  <path class="cls-34" d="M1720.43,494.7v6.99c-2.45,2.91-7.11,4.89-11.76,5.01v5.01c6.87-.23,12.58-2.68,16.77-7.45l.23-.23v-9.32h-5.24Z"></path>
  <path class="cls-34" d="M1705.64,506.58c-9.09-1.28-15.26-8.74-15.26-18.52s6.29-17.36,15.26-18.52v-5.13c-12.35,1.28-20.85,10.83-20.85,23.65s8.5,22.48,20.85,23.65v-5.13Z"></path>
  <rect class="cls-34" x="1613.27" y="506" width="18.52" height="5.01"></rect>
  <rect class="cls-34" x="1346.06" y="464.88" width="5.36" height="46.13"></rect>
  <rect class="cls-34" x="1354.45" y="464.88" width="11.42" height="5.01"></rect>
  <rect class="cls-34" x="1331.38" y="464.88" width="11.53" height="5.01"></rect>
  <rect class="cls-34" x="1373.2" y="464.88" width="5.36" height="46.13"></rect>
  <rect class="cls-34" x="1381.59" y="484.91" width="20.97" height="5.01"></rect>
  <rect class="cls-34" x="1381.59" y="464.88" width="20.97" height="5.01"></rect>
  <rect class="cls-34" x="1489.68" y="464.88" width="5.36" height="46.13"></rect>
  <rect class="cls-34" x="1604.76" y="464.88" width="5.36" height="46.13"></rect>
  <path class="cls-34" d="M1653.22,506.58c-8.97-.93-14.91-8.27-14.91-18.64s5.94-17.71,14.91-18.64v-5.01c-12.11.93-20.5,10.48-20.5,23.65s8.39,22.71,20.5,23.65v-5.01Z"></path>
  <path class="cls-34" d="M1656.37,464.18v5.01c9.43.58,15.72,8.04,15.72,18.75s-6.29,18.17-15.72,18.75v5.01c12.58-.58,21.32-10.25,21.32-23.76-.12-13.51-8.85-23.18-21.32-23.76"></path>
  <path class="cls-34" d="M1572.38,506.58c-8.97-.93-14.91-8.27-14.91-18.64s5.94-17.71,14.91-18.64v-5.01c-12.11.93-20.5,10.48-20.5,23.65s8.39,22.71,20.5,23.65v-5.01Z"></path>
  <path class="cls-34" d="M1575.53,464.18v5.01c9.43.58,15.72,8.04,15.72,18.75s-6.29,18.17-15.72,18.75v5.01c12.58-.58,21.32-10.25,21.32-23.76-.12-13.51-8.85-23.18-21.32-23.76"></path>
  <path class="cls-34" d="M1431.21,506.58c-9.09-1.16-15.49-8.62-15.49-18.64s6.29-17.47,15.49-18.64v-5.13c-12.46,1.16-21.08,10.83-21.08,23.65s8.62,22.6,21.08,23.65v-4.89Z"></path>
  <path class="cls-34" d="M1434.35,469.19c4.66.23,9.09,2.56,11.65,6.06l.47.58,4.54-2.91-.58-.7c-4.08-5.13-9.55-7.8-16.07-8.15v5.13Z"></path>
  <path class="cls-34" d="M1446.35,500.05l-.47.58c-2.68,3.61-6.99,5.82-11.65,6.06v5.01c6.52-.23,11.76-2.91,16.07-8.15l.58-.7-4.54-2.8Z"></path>
  <path class="cls-34" d="M1459.28,212.69h-5.47v7.8h5.47v-7.8ZM1484.21,264.76c6.76,0,12.46-1.63,16.42-4.66,4.08-3.15,5.59-8.74,5.59-12.58v-34.94h-5.36v34.25c0,4.43-1.16,7.34-3.96,9.43-2.68,1.98-6.41,3.03-10.6,3.03h-20.85l.58,5.36h18.17v.12ZM1452.99,223.88h-5.36v32.27h5.36v-32.27ZM1446,212.69h-5.47v7.8h5.47v-7.8ZM1273.26,237.39c1.51,1.86,2.21,4.19,2.21,7.8v10.95h5.36v-11.88c0-4.08-1.28-7.92-3.49-10.37-3.14-3.49-6.52-5.01-11.42-5.01h-23.76v5.36h24.11c2.68,0,5.47,1.28,6.99,3.14M1529.87,212.58h-5.36v52.18h5.36v-52.18ZM1484.44,219.92h-5.36v36.23h5.36v-36.23ZM1239.13,223.88h-5.24v32.27h5.24v-32.27ZM1186.13,308.91l1.98-4.89c-5.13-2.91-10.37-4.54-14.91-4.54-4.78,0-10.02,1.63-15.03,4.54l2.1,5.01c4.08-2.68,8.62-4.08,12.93-4.08,4.78-.12,9.55,1.86,12.93,3.96M1154.91,306.11c-1.16.82-2.21,1.63-3.03,2.33l-.58.47,8.97,22.6h6.06l-10.72-25.98-.7.58ZM1194.87,309.61l.35-.7-.58-.47c-.93-.7-1.86-1.51-3.03-2.33l-.7-.47-10.6,25.86h5.71l8.85-21.9ZM1124.05,288.41h-5.36v43.21h5.36v-43.21ZM1452.99,259.29h-607.22v5.36h607.22v-5.36ZM805.12,219.92h-5.36v36.23h5.36v-36.23ZM1570.17,299.47h-5.36v32.03h5.36v-32.03ZM1405.81,288.17h-5.47v7.8h5.47v-7.8ZM851.25,212.58h-5.36v43.56h5.36v-43.56ZM1685.49,212.58h-5.36v52.18h5.36v-52.18ZM1675.82,288.17h-5.47v7.8h5.47v-7.8ZM1712.39,288.17h-5.47v7.8h5.47v-7.8ZM1670.58,331.51h5.36v-32.03h-5.36v32.03ZM1612.1,299.47h-5.36v32.03h5.36v-32.03ZM1648.21,277.69c9.32,0,10.48-7.34,10.48-13.63v-40.19h-5.36v40.19c0,4.89-.82,8.27-4.89,8.27-.82,0-1.51-.23-2.33-.47l-1.05-.47-1.86,5.01.93.35c1.28.58,2.91.93,4.08.93M1716.7,212.69h-5.47v7.8h5.47v-7.8ZM1706.1,277.69c9.32,0,10.48-7.34,10.48-13.63v-40.19h-5.36v40.19c0,4.89-.82,8.27-4.89,8.27-.7,0-1.51-.23-2.33-.47l-1.05-.47-1.86,5.01.93.35c1.28.58,2.8.93,4.08.93M1758.4,264.76h.12v-5.36h-2.21c-13.05,0-17.71-8.04-17.71-15.03,0-9.32,9.2-15.03,17.71-15.03h2.21v-5.36h-.12c-15.26,0-25.04,8.04-25.04,20.38s9.32,20.38,25.04,20.38M1619.32,264.76h.12v-5.36h-2.21c-10.25,0-17.36-6.17-17.36-15.03,0-9.32,8.97-15.03,17.36-15.03h2.21v-5.36h-.12c-14.56,0-24.69,8.39-24.69,20.38,0,9.78,6.52,20.38,24.69,20.38M1614.9,212.69h-5.47v7.8h5.47v-7.8ZM1612.1,288.17h-5.47v7.8h5.47v-7.8ZM1652.29,331.51c-2.91-2.56-5.59-6.41-5.59-11.76,0-9.67,8.74-14.91,17.01-14.91h3.61v-5.36h-1.63c-15.03,0-24.46,7.8-24.46,20.27,0,4.54,1.28,8.39,3.84,11.76h7.22ZM1628.06,223.88h-5.36v40.88h5.36v-40.88ZM1657.18,295.98h5.47v-7.8h-5.47v7.8ZM1628.06,212.69h-5.47v7.8h5.47v-7.8ZM1020.38,340.24h.23v-5.47h-2.21c-13.05,0-17.71-8.04-17.71-15.03,0-9.2,9.2-15.03,17.71-15.03h2.21v-5.36h-.23c-15.26,0-25.16,8.04-25.16,20.38.12,12.81,9.43,20.5,25.16,20.5M1557.36,353.17h5.47v-7.92h-5.47v7.92ZM1385.66,319.86c0,9.9,6.52,20.38,24.69,20.38h.12v-5.47h-2.21c-10.25,0-17.36-6.17-17.36-15.03s8.97-15.03,17.36-15.03h2.21v-5.36h-.12c-14.56.12-24.69,8.5-24.69,20.5M1312.98,340.24h5.36v-51.83h-5.36v51.83ZM1413.62,295.98h5.47v-7.8h-5.47v7.8ZM1413.73,340.24h5.24v-40.77h-5.24v40.77ZM1289.45,331.51h5.36v-43.21h-5.36v43.21ZM1249.73,344.44h0ZM1261.26,335.23c-.7,1.4-1.4,2.68-2.21,3.84l-.82,1.16h36.69v-5.47h-33.31l-.35.47ZM757.25,212.69h-5.47v7.8h5.47v-7.8ZM1761.78,339.54c0,.12-.12.23-.12.35,0,.23-.12.47-.12.7-.47,4.54-3.84,7.22-9.78,7.22-3.73,0-6.64-1.4-9.9-3.15l-.93-.47-2.45,4.78.93.47c3.84,2.1,7.22,3.73,12.11,3.73,9.55,0,15.61-5.36,15.61-13.63v-40.19h-5.36v40.19h0ZM1570.63,353.17h5.47v-7.92h-5.47v7.92ZM1758.4,340.24h.12v-5.47h-2.21c-13.05,0-17.71-8.04-17.71-15.03,0-9.2,9.2-15.03,17.71-15.03h2.21v-5.36h-.12c-15.26,0-25.16,8.04-25.16,20.38s9.43,20.5,25.16,20.5M1761.78,223.88v40.07c0,.12,0,.23-.12.35v.58h-.12c-.47,4.66-3.84,7.34-9.78,7.34-3.61,0-6.64-1.4-9.9-3.15l-.93-.47-2.45,4.78.93.47c3.84,2.1,7.22,3.73,12.11,3.73,9.43,0,15.61-5.36,15.61-13.63v-40.07h-5.36ZM1422,340.24h297.26v-5.47h-297.26v5.47ZM1720.2,295.98h5.47v-7.8h-5.47v7.8ZM1713.91,331.51h5.36v-32.03h-5.36v32.03ZM1258.35,334.77c.23-.47.47-.93.7-1.4.12-.23.12-.35.23-.58l.12-.35c.12-.47.35-.82.47-1.28.58-2.1.93-4.31.93-6.52,0-4.19-1.05-8.15-3.14-11.65-2.1-3.49-5.13-6.29-8.85-8.04-2.45-1.16-5.13-1.75-7.92-1.98v5.36c8.62.82,14.68,7.45,14.68,16.31s-5.94,15.26-14.68,16.07v5.36c3.03-.23,5.94-.93,8.62-2.21l.23-.12c.12-.12.23-.12.35-.23l.35-.23c.35-.23.82-.47,1.16-.7l.35-.23c.47-.35.93-.58,1.4-.93.35-.23.58-.47.93-.82l.23-.12c.12-.12.23-.23.35-.35,1.28-1.28,2.33-2.68,3.26-4.31l.23-1.05h0ZM772.39,256.14h5.36v-32.27h-5.36v32.27ZM728.94,256.26c-2.8-2.1-3.96-5.01-3.96-9.43v-15.72h-5.36v16.42c0,3.84,1.51,9.43,5.59,12.58,4.54,3.49,8.85,4.66,16.42,4.66h36.23v-5.36h-38.21c-4.31-.12-8.04-1.16-10.72-3.14M751.77,295.98h5.47v-7.8h-5.47v7.8ZM772.16,331.51h5.36v-32.15h-5.36v32.15ZM743.97,212.69h-5.47v7.8h5.47v-7.8ZM743.97,288.17h-5.47v7.8h5.47v-7.8ZM728.94,331.74c-2.8-2.1-3.96-5.01-3.96-9.43v-15.61h-5.36v16.31c0,3.84,1.51,9.43,5.59,12.46,4.54,3.49,8.85,4.66,16.42,4.66h35.88v-5.36h-37.97c-4.19,0-7.92-1.05-10.6-3.03M1023.75,339.54v.7c-.35,4.66-3.96,7.45-9.9,7.45-3.73,0-6.64-1.4-9.9-3.15l-.93-.47-2.45,4.78.93.47c3.84,2.1,7.22,3.73,12.11,3.73,7.69,0,15.61-1.28,15.61-10.48v-43.21h-5.36v40.19h-.12ZM975.53,305.06c-2.45-1.16-5.13-1.75-7.92-1.98v5.36c8.62.82,14.68,7.45,14.68,16.31s-5.94,15.26-14.68,16.07v5.36c3.03-.23,5.94-.93,8.5-2.21l.23-.12c.12-.12.23-.12.35-.23l.23-.12c.47-.23.82-.47,1.28-.82.12,0,.12-.12.35-.23.47-.35.93-.58,1.4-.93.35-.23.58-.58,1.05-.93l.35-.35c1.28-1.28,2.33-2.68,3.26-4.31l.58-1.16h0c.23-.47.47-.93.7-1.4.12-.23.12-.35.23-.58l.12-.23c.12-.47.35-.82.47-1.28.58-2.1.93-4.31.93-6.52,0-4.19-1.05-8.27-3.15-11.65-2.21-3.49-5.24-6.29-8.97-8.04M1220.03,314.5h0c-1.63,3.15-2.33,6.64-2.33,10.13,0,11.65,8.74,20.85,19.92,21.55v-5.36c-8.27-.58-14.56-7.57-14.56-16.19s6.41-15.61,14.56-16.31v-5.36c-1.51.12-3.14.23-4.66.7-5.47,1.75-10.25,5.71-12.93,10.83M1217.11,335.23l-.23-.47h-184.62v5.36h188l-.82-1.16c-.93-1.05-1.63-2.33-2.33-3.73M943.97,335.23l-.23-.47h-151.54v5.36h154.8l-.82-1.16c-.82-1.05-1.63-2.33-2.21-3.73M946.88,314.5h0c-1.63,3.15-2.33,6.52-2.33,10.13,0,11.65,8.74,20.85,19.92,21.55v-5.36c-8.27-.58-14.56-7.57-14.56-16.19s6.41-15.61,14.56-16.31v-5.36c-1.63.12-3.15.23-4.66.7-5.59,1.75-10.25,5.71-12.93,10.83M797.66,288.41h-5.36v43.21h5.36v-43.21ZM821.43,260.1c4.08-3.15,5.59-8.74,5.59-12.58v-34.94h-5.36v34.25c0,4.43-1.16,7.34-3.96,9.43-2.33,1.75-5.71,2.8-9.55,3.03h-22.02l.58,5.36h18.17c6.87.12,12.46-1.51,16.54-4.54"></path>
</svg>
