<svg width="137" height="76" viewBox="0 0 137 76" fill="none" xmlns="http://www.w3.org/2000/svg">
<path d="M82.1261 49.0825C79.3621 49.0825 77.3881 50.0274 76.4193 51.8158L75.8989 52.7792V49.5495H71.3959V69.2282H76.132V57.5213C76.132 54.7241 77.6493 53.1191 80.299 53.1191C82.9487 53.1191 84.2713 54.68 84.2713 57.405V69.2282H89.0073V56.5584C89.0073 51.8809 86.4336 49.0825 82.1261 49.0825ZM59.1656 49.0825C53.5795 49.0825 50.1079 52.5678 50.1079 58.1826V60.9459C50.1079 66.3415 53.6095 69.6965 59.2441 69.6965C63.0114 69.6965 65.6527 68.3126 67.3151 65.4733L64.378 63.7859C63.15 65.4247 61.19 66.4387 59.2441 66.4387C56.3914 66.4387 54.6869 64.6772 54.6869 61.7247V60.9427H67.9122V57.6765C67.9122 52.4476 64.4789 49.0825 59.1656 49.0825ZM63.604 57.7583H54.6869V57.2874C54.6869 54.0456 56.2771 52.2598 59.1656 52.2598C62.0541 52.2598 63.604 54.0213 63.604 56.9737V57.7583ZM136.019 46.3096V42.5451H119.646V46.3096H125.387V65.4656H119.646V69.2282H136.019V65.4656H130.278V46.3096H136.019ZM11.8599 41.9994C4.54511 41.9994 0 46.5606 0 53.9012V57.8708C0 65.2132 4.54319 69.7725 11.8599 69.7725C19.1767 69.7725 23.7199 65.2132 23.7199 57.8708V53.9012C23.7179 46.5606 19.1728 41.9994 11.8599 41.9994ZM18.8274 58.1423C18.8274 63.0173 16.2888 65.8144 11.8599 65.8144C7.43106 65.8144 4.89061 63.0173 4.89061 58.1423V53.6296C4.89061 48.7547 7.42916 45.9575 11.858 45.9575C16.2869 45.9575 18.8255 48.7547 18.8255 53.6296L18.8274 58.1423ZM38.589 49.0927C36.1048 49.0927 33.9513 50.1201 32.8318 51.8458L32.3209 52.6304V49.5495H27.8198V75.9994H32.554V66.4208L33.0623 67.1728C34.1276 68.7515 36.2082 69.6965 38.6267 69.6965C42.7094 69.6965 46.8279 67.0258 46.8279 61.0628V57.7123C46.8279 53.4188 44.2887 49.0825 38.5864 49.0825L38.589 49.0927ZM42.0951 60.8373C42.0951 64.0089 40.2456 65.9799 37.2709 65.9799C34.4967 65.9799 32.5591 63.8983 32.5591 60.9159V57.9596C32.5591 54.9311 34.5133 52.8169 37.3092 52.8169C40.2641 52.8169 42.0996 54.788 42.0996 57.9596L42.0951 60.8373ZM102.093 42.5546L92.5344 69.2282H97.3388L99.1679 63.5086H110.154L110.171 63.5648L111.981 69.2282H116.791L107.224 42.5451L102.093 42.5546ZM100.35 59.7537L104.66 46.2489L108.927 59.7371L100.35 59.7537ZM78.6988 13.9125C79.4677 11.5964 79.2014 9.06119 77.9688 6.95596C76.1149 3.72815 72.3892 2.0676 68.7509 2.84771C65.5795 -0.681029 60.1499 -0.969818 56.6221 2.20241C55.5026 3.20934 54.6673 4.49229 54.2004 5.9241C51.81 6.41479 49.7473 7.91177 48.5396 10.0323C46.6659 13.255 47.0912 17.3205 49.5915 20.0857C48.82 22.4005 49.0837 24.9364 50.315 27.0423C52.1709 30.2713 55.8992 31.9319 59.5393 31.1505C61.1589 32.9746 63.4848 34.0128 65.9237 33.9988C69.6533 34.002 72.9575 31.5933 74.0962 28.0409C76.4859 27.5495 78.5487 26.0526 79.757 23.9326C81.6084 20.7157 81.1811 16.6713 78.6988 13.9125ZM65.9237 31.7741C64.4351 31.7766 62.993 31.2546 61.8505 30.2995L62.0517 30.1857L68.8179 26.2781C69.1602 26.0769 69.3716 25.7101 69.3742 25.3127V15.7685L72.2346 17.424C72.2633 17.4387 72.2831 17.4662 72.2882 17.4975V25.406C72.2806 28.9194 69.4355 31.7664 65.9237 31.7741ZM52.2443 25.9299C51.4978 24.6406 51.2295 23.1289 51.4875 21.6607L51.6887 21.7814L58.4613 25.6884C58.8024 25.889 59.2258 25.889 59.5668 25.6884L67.8402 20.9169V24.2214C67.8383 24.2559 67.8211 24.2879 67.7936 24.3083L60.9405 28.2626C57.8949 30.0177 54.0037 28.9743 52.2443 25.9299ZM50.4625 11.1849C51.2142 9.88667 52.4008 8.89699 53.8121 8.39032V16.433C53.807 16.8285 54.0171 17.1959 54.3614 17.3914L62.5945 22.143L59.7341 23.7985C59.7028 23.8151 59.6651 23.8151 59.6339 23.7985L52.7942 19.8506C49.7549 18.0885 48.7127 14.1987 50.4625 11.1511V11.1849ZM73.9627 16.6471L65.7027 11.8481L68.5561 10.1997C68.5874 10.1831 68.6251 10.1831 68.6564 10.1997L75.4961 14.154C78.5404 15.9117 79.5839 19.8059 77.827 22.8509C77.0875 24.1333 75.9246 25.1172 74.5381 25.6347V17.592C74.526 17.1972 74.3076 16.8381 73.9627 16.6471ZM76.8097 12.3644L76.6085 12.2436L69.8493 8.30279C69.5057 8.10153 69.0804 8.10153 68.7375 8.30279L60.4711 13.0742V9.76975C60.4679 9.73588 60.4832 9.70202 60.5113 9.68285L67.351 5.73499C70.3998 3.97796 74.2955 5.02578 76.0517 8.07597C76.7938 9.36403 77.062 10.8712 76.8104 12.3363V12.3631L76.8097 12.3644ZM58.9103 18.222L56.0499 16.5736C56.0211 16.5563 56.0013 16.5263 55.9962 16.4931V8.60436C56.0007 5.08392 58.8573 2.23435 62.3755 2.23882C63.8603 2.24074 65.2985 2.76146 66.4403 3.71153L66.2392 3.82526L59.4729 7.73288C59.1306 7.93413 58.9192 8.30087 58.9167 8.69828L58.9103 18.222ZM60.4641 14.8709L64.1483 12.7465L67.8396 14.8709V19.1197L64.1617 21.2447L60.4711 19.1197L60.4641 14.8709Z" fill="#98C0EF"/>
</svg>
