<svg width="526" height="550" viewBox="0 0 526 550" fill="none" xmlns="http://www.w3.org/2000/svg">
<path d="M326.375 275C326.375 323.613 318.981 367.49 307.125 399.105C301.193 414.923 294.202 427.516 286.591 436.1C278.977 444.688 270.998 449 263 449C255.002 449 247.023 444.688 239.409 436.1C231.798 427.516 224.807 414.923 218.875 399.105C207.019 367.49 199.625 323.613 199.625 275C199.625 226.387 207.019 182.51 218.875 150.895C224.807 135.077 231.798 122.484 239.409 113.9C247.023 105.312 255.002 101 263 101C270.998 101 278.977 105.312 286.591 113.9C294.202 122.484 301.193 135.077 307.125 150.895C318.981 182.51 326.375 226.387 326.375 275Z" stroke="url(#paint0_linear_167_36)" stroke-width="6"/>
<path d="M263 211.625C311.613 211.625 355.49 219.019 387.105 230.874C402.923 236.806 415.516 243.797 424.1 251.408C432.688 259.022 437 267.001 437 275C437 282.998 432.688 290.977 424.1 298.591C415.516 306.202 402.923 313.193 387.105 319.125C355.49 330.98 311.613 338.375 263 338.375C214.387 338.375 170.51 330.98 138.895 319.125C123.077 313.193 110.484 306.202 101.9 298.591C93.3119 290.977 89 282.998 89 275C89 267.001 93.3119 259.022 101.9 251.408C110.484 243.797 123.077 236.806 138.895 230.874C170.51 219.019 214.387 211.625 263 211.625Z" stroke="url(#paint1_linear_167_36)" stroke-width="6"/>
<path d="M307.812 230.187C342.187 264.562 367.984 300.816 381.956 331.554C388.947 346.934 392.908 360.782 393.596 372.234C394.285 383.69 391.692 392.381 386.036 398.037C380.38 403.693 371.689 406.286 360.233 405.597C348.781 404.909 334.933 400.947 319.553 393.957C288.815 379.985 252.561 354.187 218.186 319.813C183.812 285.439 158.015 249.185 144.043 218.446C137.052 203.066 133.091 189.218 132.403 177.767C131.714 166.31 134.307 157.619 139.963 151.964C145.619 146.308 154.31 143.715 165.766 144.404C177.218 145.092 191.066 149.053 206.445 156.044C237.184 170.016 273.438 195.813 307.812 230.187Z" stroke="url(#paint2_linear_167_36)" stroke-width="6"/>
<path d="M139.963 398.037C134.307 392.381 131.714 383.69 132.403 372.234C133.091 360.782 137.052 346.934 144.043 331.554C158.015 300.816 183.812 264.562 218.186 230.187C252.561 195.813 288.815 170.016 319.553 156.044C334.933 149.053 348.781 145.092 360.233 144.404C371.689 143.715 380.38 146.308 386.036 151.964C391.692 157.619 394.285 166.31 393.596 177.767C392.908 189.218 388.947 203.066 381.956 218.446C367.984 249.185 342.187 285.439 307.812 319.813C273.438 354.187 237.184 379.985 206.445 393.957C191.066 400.947 177.218 404.909 165.766 405.597C154.31 406.286 145.619 403.693 139.963 398.037Z" stroke="url(#paint3_linear_167_36)" stroke-width="6"/>
<defs>
<linearGradient id="paint0_linear_167_36" x1="263" y1="98" x2="263" y2="452" gradientUnits="userSpaceOnUse">
<stop stop-color="white"/>
<stop offset="1" stop-color="white" stop-opacity="0"/>
</linearGradient>
<linearGradient id="paint1_linear_167_36" x1="86" y1="275" x2="440" y2="275" gradientUnits="userSpaceOnUse">
<stop stop-color="white"/>
<stop offset="1" stop-color="white" stop-opacity="0"/>
</linearGradient>
<linearGradient id="paint2_linear_167_36" x1="137.841" y1="149.842" x2="388.157" y2="400.158" gradientUnits="userSpaceOnUse">
<stop stop-color="white"/>
<stop offset="1" stop-color="white" stop-opacity="0"/>
</linearGradient>
<linearGradient id="paint3_linear_167_36" x1="388.158" y1="149.842" x2="137.842" y2="400.158" gradientUnits="userSpaceOnUse">
<stop stop-color="white"/>
<stop offset="1" stop-color="white" stop-opacity="0"/>
</linearGradient>
</defs>
</svg>
