<svg width="290" height="290" viewBox="0 0 290 290" fill="none" xmlns="http://www.w3.org/2000/svg">
<path d="M196.375 145C196.375 184.776 190.324 220.653 180.64 246.477C175.794 259.4 170.096 269.65 163.92 276.615C157.742 283.583 151.342 287 145 287C138.658 287 132.258 283.583 126.08 276.615C119.904 269.65 114.206 259.4 109.36 246.477C99.676 220.653 93.625 184.776 93.625 145C93.625 105.224 99.676 69.347 109.36 43.5229C114.206 30.5998 119.904 20.3501 126.08 13.385C132.258 6.41652 138.658 3 145 3C151.342 3 157.742 6.41652 163.92 13.385C170.096 20.3501 175.794 30.5998 180.64 43.5229C190.324 69.347 196.375 105.224 196.375 145Z" stroke="url(#paint0_linear_166_30)" stroke-width="6"/>
<path d="M145 93.6246C184.776 93.6246 220.653 99.6757 246.477 109.36C259.4 114.206 269.65 119.904 276.615 126.079C283.583 132.257 287 138.658 287 145C287 151.341 283.583 157.742 276.615 163.92C269.65 170.095 259.4 175.793 246.477 180.64C220.653 190.324 184.776 196.375 145 196.375C105.224 196.375 69.347 190.324 43.5229 180.64C30.5998 175.793 20.3501 170.095 13.385 163.92C6.41652 157.742 3 151.341 3 145C3 138.658 6.41652 132.257 13.385 126.079C20.3501 119.904 30.5998 114.206 43.5229 109.36C69.347 99.6757 105.224 93.6246 145 93.6246Z" stroke="url(#paint1_linear_166_30)" stroke-width="6"/>
<path d="M181.327 108.673C209.453 136.799 230.543 166.446 241.956 191.554C247.667 204.119 250.886 215.396 251.444 224.687C252.003 233.983 249.893 240.925 245.409 245.409C240.925 249.894 233.983 252.004 224.687 251.445C215.395 250.886 204.118 247.668 191.553 241.957C166.445 230.544 136.798 209.454 108.672 181.328C80.546 153.202 59.4559 123.554 48.0432 98.4463C42.3319 85.8815 39.1135 74.6046 38.555 65.3131C37.9962 56.0169 40.1062 49.0752 44.5904 44.591C49.0746 40.1068 56.0163 37.9968 65.3125 38.5556C74.604 39.1141 85.8809 42.3325 98.4457 48.0438C123.554 59.4565 153.201 80.5466 181.327 108.673Z" stroke="url(#paint2_linear_166_30)" stroke-width="6"/>
<path d="M44.5904 245.409C40.1062 240.925 37.9962 233.983 38.555 224.687C39.1135 215.396 42.3319 204.119 48.0432 191.554C59.4559 166.446 80.546 136.799 108.672 108.673C136.798 80.5466 166.445 59.4565 191.553 48.0438C204.118 42.3325 215.395 39.1141 224.687 38.5556C233.983 37.9968 240.925 40.1068 245.409 44.591C249.893 49.0752 252.003 56.0169 251.444 65.3131C250.886 74.6046 247.667 85.8815 241.956 98.4463C230.543 123.554 209.453 153.202 181.327 181.328C153.201 209.454 123.554 230.544 98.4457 241.957C85.8809 247.668 74.604 250.886 65.3125 251.445C56.0163 252.004 49.0746 249.894 44.5904 245.409Z" stroke="url(#paint3_linear_166_30)" stroke-width="6"/>
<defs>
<linearGradient id="paint0_linear_166_30" x1="145" y1="0" x2="145" y2="290" gradientUnits="userSpaceOnUse">
<stop stop-color="white"/>
<stop offset="1" stop-color="white" stop-opacity="0"/>
</linearGradient>
<linearGradient id="paint1_linear_166_30" x1="0" y1="145" x2="290" y2="145" gradientUnits="userSpaceOnUse">
<stop stop-color="white"/>
<stop offset="1" stop-color="white" stop-opacity="0"/>
</linearGradient>
<linearGradient id="paint2_linear_166_30" x1="42.4691" y1="42.4697" x2="247.53" y2="247.531" gradientUnits="userSpaceOnUse">
<stop stop-color="white"/>
<stop offset="1" stop-color="white" stop-opacity="0"/>
</linearGradient>
<linearGradient id="paint3_linear_166_30" x1="247.53" y1="42.4698" x2="42.4694" y2="247.531" gradientUnits="userSpaceOnUse">
<stop stop-color="white"/>
<stop offset="1" stop-color="white" stop-opacity="0"/>
</linearGradient>
</defs>
</svg>
