<svg width="20" height="20" viewBox="0 0 20 20" fill="none" xmlns="http://www.w3.org/2000/svg">
<path d="M8.58981 11.4102L12.6283 7.37179M16.7594 4.90719L13.3506 15.986C13.0451 16.9789 12.8922 17.4755 12.6287 17.6402C12.4002 17.783 12.1172 17.8068 11.8683 17.7036C11.5813 17.5845 11.3483 17.1194 10.8836 16.19L8.72449 11.8717C8.65075 11.7242 8.61384 11.6508 8.56458 11.5869C8.52087 11.5302 8.47042 11.4791 8.41372 11.4354C8.35126 11.3872 8.27906 11.3511 8.13815 11.2807L3.80994 9.11658C2.88052 8.65187 2.41577 8.4193 2.29668 8.13228C2.19339 7.88337 2.21695 7.60015 2.35975 7.3716C2.5244 7.10807 3.02103 6.95498 4.01421 6.64939L15.093 3.24052C15.8738 3.00027 16.2644 2.88025 16.5281 2.97707C16.7578 3.0614 16.9389 3.24233 17.0233 3.47205C17.12 3.73565 16.9999 4.12601 16.7599 4.90603L16.7594 4.90719Z" stroke="#818180" stroke-linecap="round" stroke-linejoin="round"/>
</svg>
