<svg width="40" height="40" viewBox="0 0 40 40" fill="none" xmlns="http://www.w3.org/2000/svg">
<path d="M35 33.3331C35 30.4304 32.2173 27.961 28.3333 27.0458M25 33.3333C25 29.6514 20.5228 26.6666 15 26.6666C9.47715 26.6666 5 29.6514 5 33.3333M25 21.6666C28.6819 21.6666 31.6667 18.6818 31.6667 14.9999C31.6667 11.318 28.6819 8.33325 25 8.33325M15 21.6666C11.3181 21.6666 8.33333 18.6818 8.33333 14.9999C8.33333 11.318 11.3181 8.33325 15 8.33325C18.6819 8.33325 21.6667 11.318 21.6667 14.9999C21.6667 18.6818 18.6819 21.6666 15 21.6666Z" stroke="#D6409F" stroke-width="3" stroke-linecap="round" stroke-linejoin="round"/>
</svg>
