<svg width="165" height="82" viewBox="0 0 165 82" fill="none" xmlns="http://www.w3.org/2000/svg">
<path d="M108.462 16.2C108.462 16.2 107.935 12.477 106.311 10.8422C104.254 8.69067 101.955 8.68013 100.9 8.55356C93.3484 8.00513 82.0105 8.00513 82.0105 8.00513H81.9895C81.9895 8.00513 70.6516 8.00513 63.1 8.55356C62.0453 8.68013 59.7461 8.69067 57.6895 10.8422C56.0652 12.477 55.5484 16.2 55.5484 16.2C55.5484 16.2 55 20.577 55 24.9434V29.0356C55 33.402 55.5379 37.779 55.5379 37.779C55.5379 37.779 56.0652 41.502 57.6789 43.1368C59.7355 45.2883 62.4355 45.2145 63.6379 45.4465C67.9621 45.8579 82 45.9844 82 45.9844C82 45.9844 93.3484 45.9633 100.9 45.4254C101.955 45.2989 104.254 45.2883 106.311 43.1368C107.935 41.502 108.462 37.779 108.462 37.779C108.462 37.779 109 33.4125 109 29.0356V24.9434C109 20.577 108.462 16.2 108.462 16.2ZM76.4207 34.0032V18.8262L91.007 26.4411L76.4207 34.0032Z" fill="#98C0EF"/>
<path d="M30.4844 81.1665V72.2759L22.5781 58.6196H26.9844L32.4375 68.4321H32.5469L38 58.6196H42.4062L34.5 72.2759V81.1665H30.4844ZM48.4844 81.4946C46.8594 81.4946 45.4479 81.1509 44.25 80.4634C43.0521 79.7655 42.1198 78.7759 41.4531 77.4946C40.7969 76.203 40.4688 74.6665 40.4688 72.8853V72.854C40.4688 71.0832 40.8021 69.5571 41.4688 68.2759C42.1354 66.9842 43.0677 65.9946 44.2656 65.3071C45.4635 64.6092 46.8646 64.2603 48.4688 64.2603C50.0833 64.2603 51.4896 64.6092 52.6875 65.3071C53.8958 65.9946 54.8333 66.979 55.5 68.2603C56.1667 69.5415 56.5 71.0728 56.5 72.854V72.8853C56.5 74.6769 56.1667 76.2186 55.5 77.5103C54.8438 78.7915 53.9167 79.7759 52.7188 80.4634C51.5208 81.1509 50.1094 81.4946 48.4844 81.4946ZM48.5 78.354C49.3229 78.354 50.0365 78.1405 50.6406 77.7134C51.2448 77.2863 51.7083 76.6665 52.0312 75.854C52.3646 75.0311 52.5312 74.0415 52.5312 72.8853V72.854C52.5312 71.7082 52.3646 70.729 52.0312 69.9165C51.6979 69.104 51.224 68.4842 50.6094 68.0571C50.0052 67.63 49.2917 67.4165 48.4688 67.4165C47.6667 67.4165 46.9583 67.63 46.3438 68.0571C45.7396 68.4842 45.2656 69.104 44.9219 69.9165C44.5885 70.729 44.4219 71.7082 44.4219 72.854V72.8853C44.4219 74.0415 44.5885 75.0311 44.9219 75.854C45.2656 76.6665 45.7396 77.2863 46.3438 77.7134C46.9583 78.1405 47.6771 78.354 48.5 78.354ZM64.6406 81.4946C63.4219 81.4946 62.3854 81.2498 61.5312 80.7603C60.6875 80.2603 60.0417 79.5467 59.5938 78.6196C59.1458 77.6925 58.9219 76.5936 58.9219 75.3228V64.604H62.7969V74.5415C62.7969 75.7186 63.0729 76.63 63.625 77.2759C64.1771 77.9113 65.0104 78.229 66.125 78.229C66.8646 78.229 67.5052 78.0623 68.0469 77.729C68.599 77.3853 69.026 76.9113 69.3281 76.3071C69.6302 75.703 69.7812 74.9998 69.7812 74.1978V64.604H73.6719V81.1665H69.7812V78.5728H69.7031C69.276 79.4582 68.6406 80.1665 67.7969 80.6978C66.9531 81.229 65.901 81.4946 64.6406 81.4946ZM80.2188 81.1665V62.0103H73.4688V58.6196H90.9688V62.0103H84.2344V81.1665H80.2188ZM96.3594 81.4946C95.1406 81.4946 94.1042 81.2498 93.25 80.7603C92.4062 80.2603 91.7604 79.5467 91.3125 78.6196C90.8646 77.6925 90.6406 76.5936 90.6406 75.3228V64.604H94.5156V74.5415C94.5156 75.7186 94.7917 76.63 95.3438 77.2759C95.8958 77.9113 96.7292 78.229 97.8438 78.229C98.5833 78.229 99.224 78.0623 99.7656 77.729C100.318 77.3853 100.745 76.9113 101.047 76.3071C101.349 75.703 101.5 74.9998 101.5 74.1978V64.604H105.391V81.1665H101.5V78.5728H101.422C100.995 79.4582 100.359 80.1665 99.5156 80.6978C98.6719 81.229 97.6198 81.4946 96.3594 81.4946ZM117.828 81.4946C116.641 81.4946 115.604 81.2186 114.719 80.6665C113.833 80.104 113.151 79.3332 112.672 78.354H112.594V81.1665H108.703V58.6196H112.594V67.4478H112.672C113.151 66.4582 113.839 65.6821 114.734 65.1196C115.641 64.5467 116.682 64.2603 117.859 64.2603C119.245 64.2603 120.448 64.6092 121.469 65.3071C122.49 65.9946 123.281 66.9842 123.844 68.2759C124.406 69.5571 124.688 71.0884 124.688 72.8696V72.8853C124.688 74.6561 124.406 76.1873 123.844 77.479C123.292 78.7707 122.5 79.7655 121.469 80.4634C120.448 81.1509 119.234 81.4946 117.828 81.4946ZM116.672 78.229C117.505 78.229 118.224 78.0155 118.828 77.5884C119.443 77.1509 119.911 76.5311 120.234 75.729C120.557 74.9269 120.719 73.979 120.719 72.8853V72.8696C120.719 71.7655 120.552 70.8175 120.219 70.0259C119.896 69.2342 119.432 68.6248 118.828 68.1978C118.224 67.7603 117.505 67.5415 116.672 67.5415C115.87 67.5415 115.161 67.7603 114.547 68.1978C113.943 68.6353 113.464 69.255 113.109 70.0571C112.755 70.8488 112.578 71.7863 112.578 72.8696V72.8853C112.578 73.9686 112.75 74.9113 113.094 75.7134C113.448 76.5155 113.932 77.1353 114.547 77.5728C115.161 78.0103 115.87 78.229 116.672 78.229ZM134.469 81.4946C132.812 81.4946 131.385 81.1457 130.188 80.4478C129 79.7498 128.089 78.7603 127.453 77.479C126.818 76.1978 126.5 74.6821 126.5 72.9321V72.9165C126.5 71.1769 126.818 69.6613 127.453 68.3696C128.099 67.0675 129 66.0571 130.156 65.3384C131.323 64.6196 132.698 64.2603 134.281 64.2603C135.854 64.2603 137.214 64.6092 138.359 65.3071C139.516 65.9946 140.401 66.9634 141.016 68.2134C141.641 69.4634 141.953 70.9217 141.953 72.5884V73.8384H128.422V71.2446H140.094L138.219 73.6665V72.1665C138.219 71.0832 138.052 70.1821 137.719 69.4634C137.385 68.7446 136.927 68.2082 136.344 67.854C135.76 67.4894 135.089 67.3071 134.328 67.3071C133.557 67.3071 132.87 67.4946 132.266 67.8696C131.672 68.2342 131.203 68.7811 130.859 69.5103C130.526 70.2394 130.359 71.1248 130.359 72.1665V73.6665C130.359 74.6769 130.526 75.5415 130.859 76.2603C131.203 76.9686 131.688 77.5155 132.312 77.9009C132.938 78.2759 133.682 78.4634 134.547 78.4634C135.193 78.4634 135.76 78.3644 136.25 78.1665C136.74 77.9582 137.141 77.6925 137.453 77.3696C137.776 77.0467 138 76.6978 138.125 76.3228L138.156 76.2134H141.781L141.75 76.3853C141.615 77.0207 141.365 77.6457 141 78.2603C140.635 78.8644 140.146 79.4113 139.531 79.9009C138.917 80.3905 138.188 80.7811 137.344 81.0728C136.5 81.354 135.542 81.4946 134.469 81.4946Z" fill="#98C0EF"/>
</svg>
